<?xml version="1.0" encoding="UTF-8" standalone="no"?>
<svg
   width="411.70807"
   height="188.97641"
   viewBox="0 0 411.70806 188.97641"
   version="1.1"
   id="svg268"
   sodipodi:docname="BASH_Logo_Sticker.svg"
   inkscape:version="1.2.2 (b0a8486541, 2022-12-01)"
   inkscape:export-filename="BASH_Logo_Sticker.png"
   inkscape:export-xdpi="300"
   inkscape:export-ydpi="300"
   xmlns:inkscape="http://www.inkscape.org/namespaces/inkscape"
   xmlns:sodipodi="http://sodipodi.sourceforge.net/DTD/sodipodi-0.dtd"
   xmlns:xlink="http://www.w3.org/1999/xlink"
   xmlns="http://www.w3.org/2000/svg"
   xmlns:svg="http://www.w3.org/2000/svg"
   xmlns:rdf="http://www.w3.org/1999/02/22-rdf-syntax-ns#"
   xmlns:cc="http://creativecommons.org/ns#"
   xmlns:dc="http://purl.org/dc/elements/1.1/">
  <sodipodi:namedview
     id="namedview270"
     pagecolor="#ffffff"
     bordercolor="#999999"
     borderopacity="1"
     inkscape:showpageshadow="0"
     inkscape:pageopacity="0"
     inkscape:pagecheckerboard="true"
     inkscape:deskcolor="#d1d1d1"
     showgrid="false"
     showguides="true"
     inkscape:zoom="2.5871806"
     inkscape:cx="171.03561"
     inkscape:cy="116.72939"
     inkscape:window-width="1920"
     inkscape:window-height="1048"
     inkscape:window-x="0"
     inkscape:window-y="0"
     inkscape:window-maximized="1"
     inkscape:current-layer="layer1" />
  <!-- Generator: Sketch 41.2 (35397) - http://www.bohemiancoding.com/sketch -->
  <title
     id="title218">BASH_logo-transparent-bg-bw</title>
  <desc
     id="desc220">Created with Sketch.</desc>
  <defs
     id="defs225">
    <inkscape:path-effect
       effect="offset"
       id="path-effect2059"
       is_visible="true"
       lpeversion="1.2"
       linejoin_type="round"
       unit="mm"
       offset="2"
       miter_limit="4"
       attempt_force_join="false"
       update_on_knot_move="true" />
    <inkscape:path-effect
       effect="offset"
       id="path-effect1996"
       is_visible="true"
       lpeversion="1.2"
       linejoin_type="miter"
       unit="mm"
       offset="3"
       miter_limit="4"
       attempt_force_join="false"
       update_on_knot_move="true" />
    <inkscape:path-effect
       effect="offset"
       id="path-effect1215"
       is_visible="true"
       lpeversion="1.2"
       linejoin_type="round"
       unit="mm"
       offset="3"
       miter_limit="1"
       attempt_force_join="false"
       update_on_knot_move="true" />
    <inkscape:path-effect
       effect="offset"
       id="path-effect1213"
       is_visible="true"
       lpeversion="1.2"
       linejoin_type="bevel"
       unit="mm"
       offset="3"
       miter_limit="4"
       attempt_force_join="false"
       update_on_knot_move="true" />
    <inkscape:path-effect
       effect="offset"
       id="path-effect1211"
       is_visible="true"
       lpeversion="1.2"
       linejoin_type="miter"
       unit="mm"
       offset="3"
       miter_limit="4"
       attempt_force_join="false"
       update_on_knot_move="true" />
    <polygon
       id="path-1"
       points="79.3701,91 79.3701,0.2939 0.0001,0.2939 0.0001,91 " />
    <polygon
       id="path-3"
       points="28.43,0.9396 0.4917,0.9396 0.4917,40.3456 28.43,40.3456 " />
    <polygon
       id="path-5"
       points="215.43,90.71 215.43,-1.4210855e-14 0,-1.4210855e-14 0,90.71 " />
    <mask
       id="mask-2-3"
       fill="#ffffff">
      <use
         xlink:href="#path-1"
         id="use227-6" />
    </mask>
  </defs>
  <g
     inkscape:groupmode="layer"
     id="layer1"
     inkscape:label="Contour"
     transform="translate(-17.139673,-17.720774)">
    <path
       id="Fill-42-2"
       mask="none"
       style="fill:#ffffff;fill-opacity:1;stroke:none;stroke-width:0.999999;stroke-opacity:1"
       d="m 101.50276,17.720802 c -5.814201,0 -11.590237,1.541783 -16.75194,4.607395 L 33.609099,52.682585 C 23.326597,58.7865 17.139673,69.951554 17.139673,81.858093 v 60.708777 c 0,11.90369 6.186126,23.07084 16.472916,29.17551 l 51.134743,30.35089 c 5.171109,3.0712 10.952945,4.60391 16.758918,4.60391 5.80491,0 11.58424,-1.53473 16.75194,-4.60391 l 51.14171,-30.35089 c 2.93971,-1.74346 12.83165,-7.61003 12.83165,-7.61003 0,0 0,2.05398 0,2.97474 4.6e-4,7.45444 6.04336,13.49736 13.49782,13.4978 76.87707,0 143.06482,-0.004 219.62056,-0.004 7.45444,-4.4e-4 13.49738,-6.04336 13.49782,-13.49781 v -1.30096 c -0.0482,-7.98356 0,-20.87801 0,-20.87801 V 79.475837 c 0,-9.276131 -7.5118,-15.956719 -16.08576,-15.956719 -68.23695,-0.01696 -160.5225,-0.0075 -217.55579,-0.0036 -4.78828,0 -9.06925,2.213216 -12.06783,5.653735 -2.71312,-6.737909 -7.29832,-12.660663 -13.74195,-16.486864 l -51.13475,-30.35422 c -5.16652,-3.068473 -10.94419,-4.607395 -16.75891,-4.607395 z"
       inkscape:label="Contour"
       sodipodi:nodetypes="sccssccsccccccsccscccccs" />
  </g>
  <g
     inkscape:groupmode="layer"
     id="layer2"
     inkscape:label="Logo"
     style="display:inline"
     transform="translate(-17.139673,-17.720774)">
    <path
       id="Fill-42-5"
       mask="none"
       style="display:inline;fill:#202020;fill-opacity:1;stroke-width:0.999999"
       d="m 415.34821,165.80168 v 1.3036 h -6.53944 v -9.69309 h 1.6804 v 8.38949 z m -10.25417,0 v 1.3036 h -6.53945 v -9.69309 h 1.6804 v 8.38949 z m -10.31775,-8.39003 v 1.31789 h -4.85905 v 2.73578 h 4.19475 v 1.29289 h -4.19475 v 3.04293 h 4.90905 v 1.30361 h -6.59659 v -9.6931 z m -15.39252,-8.9e-4 v 4.05545 h 3.46616 v -4.05545 h 1.63754 v 9.69488 h -1.63754 v -4.32689 h -3.46616 v 4.32689 h -1.63218 v -9.69488 z m -6.45944,7.19857 c 0,-0.23037 -0.05,-0.43394 -0.15,-0.60895 -0.10179,-0.17679 -0.24287,-0.32858 -0.42858,-0.46429 -0.18394,-0.13215 -0.4018,-0.24822 -0.65716,-0.34823 -0.25358,-0.1 -0.53037,-0.19107 -0.83038,-0.27679 -0.40001,-0.11072 -0.79645,-0.24822 -1.18574,-0.41251 -0.39108,-0.16429 -0.73752,-0.36608 -1.04289,-0.6018 -0.30715,-0.2375 -0.55358,-0.51608 -0.74287,-0.83395 -0.18929,-0.31608 -0.28394,-0.68216 -0.28394,-1.10002 0,-0.41787 0.0947,-0.79109 0.28394,-1.12325 0.18929,-0.33036 0.44287,-0.60894 0.75895,-0.84109 0.31786,-0.23036 0.68751,-0.40894 1.10717,-0.53394 0.41965,-0.12322 0.85894,-0.18572 1.3161,-0.18572 0.49108,0 0.94824,0.0732 1.37682,0.21608 0.42679,0.14465 0.80002,0.34822 1.11967,0.60716 0.31965,0.25893 0.57323,0.56965 0.75894,0.93038 0.18751,0.3625 0.28215,0.7643 0.28751,1.2036 h -1.6804 c -0.0232,-0.24465 -0.0786,-0.46787 -0.16429,-0.66966 -0.0875,-0.20179 -0.20893,-0.3768 -0.36429,-0.52323 -0.15715,-0.14643 -0.34644,-0.25893 -0.57144,-0.33929 -0.22322,-0.0804 -0.48216,-0.11965 -0.77681,-0.11965 -0.25179,0 -0.48572,0.0321 -0.70001,0.0929 -0.21429,0.0607 -0.40001,0.15358 -0.55716,0.27322 -0.15536,0.11965 -0.27858,0.26429 -0.36608,0.43215 -0.0893,0.16965 -0.13393,0.36073 -0.13393,0.57323 0,0.22679 0.0607,0.42323 0.18214,0.5893 0.12144,0.16608 0.28037,0.31251 0.47502,0.43573 0.19643,0.125 0.42322,0.23215 0.6768,0.32322 0.25536,0.0911 0.51965,0.17322 0.79466,0.24822 0.42501,0.12143 0.83038,0.26786 1.21789,0.44465 0.38751,0.17501 0.72859,0.38573 1.02324,0.63216 0.29286,0.24644 0.52679,0.53216 0.70001,0.85538 0.17144,0.32322 0.25894,0.69466 0.25894,1.11253 0,0.43037 -0.0964,0.80895 -0.28751,1.13753 -0.19108,0.32857 -0.44822,0.60537 -0.76966,0.82502 -0.32322,0.22143 -0.69645,0.38929 -1.11967,0.50358 -0.42501,0.1125 -0.86966,0.16965 -1.33218,0.16965 -0.3125,0 -0.62144,-0.0286 -0.93038,-0.0875 -0.30893,-0.0554 -0.60358,-0.14286 -0.88573,-0.25893 -0.28215,-0.11429 -0.54466,-0.25715 -0.78752,-0.42858 -0.24286,-0.17144 -0.45358,-0.36965 -0.63394,-0.59287 -0.17858,-0.22501 -0.32144,-0.47502 -0.42323,-0.75359 -0.10357,-0.2768 -0.15714,-0.58216 -0.16072,-0.91431 h 1.68576 c 0.025,0.29286 0.0911,0.54644 0.20357,0.7643 0.11251,0.21786 0.26073,0.40001 0.44823,0.54287 0.1875,0.14465 0.40537,0.25537 0.65537,0.32858 0.25001,0.0714 0.52502,0.10893 0.82859,0.10893 0.25358,0 0.4893,-0.0303 0.70716,-0.0857 0.21965,-0.0589 0.41251,-0.14465 0.57502,-0.25715 0.1625,-0.11429 0.29108,-0.25358 0.38572,-0.42144 0.0929,-0.16608 0.13929,-0.35537 0.13929,-0.56787 m -20.91961,-0.54484 0.0143,-6.65373 h 1.70005 v 9.69488 h -1.69469 l -3.31794,-6.66981 -0.007,6.66981 h -1.70183 v -9.69488 h 1.70183 z m -14.91125,3.04186 v -1.31789 h 2.15719 v -7.05195 h -2.15719 v -1.32504 h 6.06443 v 1.32504 h -2.20541 v 7.05195 h 2.20541 v 1.31789 z m -8.2936,-3.61634 h 2.33756 l -1.1536,-3.80009 z m 2.759,1.36611 h -3.18579 l -0.70002,2.25005 h -1.73754 l 3.31258,-9.69487 h 1.47682 l 3.25008,9.69487 h -1.7304 z m -8.35735,1.03878 c -0.17143,0.19464 -0.37501,0.375 -0.60894,0.53929 -0.23393,0.16429 -0.49465,0.30537 -0.78395,0.42501 -0.28929,0.11965 -0.60358,0.21251 -0.94109,0.28037 -0.3393,0.0661 -0.70002,0.0982 -1.08217,0.0982 -0.61252,0 -1.1536,-0.1125 -1.62504,-0.33929 -0.47144,-0.225 -0.86966,-0.53394 -1.19289,-0.92681 -0.325,-0.39465 -0.57144,-0.85716 -0.74287,-1.38932 -0.16965,-0.53215 -0.25715,-1.10538 -0.26251,-1.7179 v -1.19645 c 0,-0.61431 0.0839,-1.18575 0.25179,-1.7179 0.16787,-0.53394 0.41073,-0.99646 0.72502,-1.39289 0.31608,-0.39644 0.7018,-0.70716 1.15896,-0.93396 0.45715,-0.23036 0.98038,-0.34465 1.56789,-0.34465 0.5268,0 0.99824,0.0697 1.41432,0.20537 0.41608,0.13928 0.77324,0.3375 1.07146,0.59822 0.29822,0.25894 0.53573,0.57502 0.71073,0.94824 0.175,0.37144 0.28572,0.78931 0.33215,1.25182 h -1.65183 c -0.0411,-0.26251 -0.10714,-0.49823 -0.19643,-0.70538 -0.0893,-0.20893 -0.20715,-0.38751 -0.35715,-0.53394 -0.15,-0.14643 -0.33037,-0.25715 -0.54287,-0.33572 -0.21251,-0.0786 -0.46251,-0.11607 -0.7518,-0.11607 -0.35537,0 -0.65895,0.0821 -0.91431,0.24822 -0.25358,0.16786 -0.4643,0.39108 -0.63216,0.67323 -0.16786,0.28215 -0.29286,0.60894 -0.37322,0.97859 -0.0786,0.37144 -0.12144,0.75895 -0.12501,1.16253 v 1.21074 c 0.004,0.40358 0.0482,0.79109 0.12858,1.15896 0.0821,0.36787 0.21072,0.69466 0.38572,0.97502 0.17501,0.28215 0.40001,0.50716 0.67502,0.67681 0.27679,0.16786 0.60716,0.25536 0.99466,0.25893 0.15894,0 0.32323,-0.009 0.49109,-0.0286 0.16786,-0.0214 0.32858,-0.0536 0.47858,-0.0964 0.15179,-0.0464 0.29108,-0.10179 0.41787,-0.16965 0.125,-0.0714 0.22858,-0.15536 0.30715,-0.25893 l 0.0143,-1.93755 h -1.84111 v -1.24289 h 3.4858 z m -14.90982,-2.40489 h 2.33756 l -1.1536,-3.80009 z m 2.75899,1.36611 h -3.18579 l -0.70001,2.25005 h -1.73755 l 3.31258,-9.69487 h 1.47683 l 3.25007,9.69487 h -1.7304 z m -14.49606,-2.6431 v 1.28396 h 5.60728 v -1.28396 z m -4.31778,-4.80137 v 1.31789 h -4.85905 v 2.73578 h 4.19475 v 1.29289 h -4.19475 v 3.04293 h 4.90905 v 1.30361 h -6.59659 v -9.6931 z m -12.01011,6.65284 0.0143,-6.65373 h 1.70004 v 9.69488 h -1.69468 l -3.31794,-6.66981 -0.007,6.66981 h -1.70183 v -9.69488 h 1.70183 z m -13.4264,-2.0313 h 1.54647 c 0.28036,0 0.53751,-0.0375 0.77144,-0.1125 0.23215,-0.0768 0.43394,-0.18393 0.60537,-0.32322 0.16965,-0.14108 0.3018,-0.31072 0.39466,-0.5143 0.0929,-0.2 0.14107,-0.43394 0.14107,-0.69466 0,-0.27143 -0.0446,-0.51073 -0.13393,-0.71787 -0.0893,-0.21072 -0.21608,-0.38573 -0.38215,-0.52859 -0.16429,-0.14107 -0.36608,-0.24822 -0.60537,-0.32143 -0.23751,-0.0732 -0.50359,-0.11251 -0.79824,-0.11608 h -1.53932 z m 1.70718,1.29111 h -1.70718 v 3.78045 h -1.6804 v -9.6931 h 3.21972 c 0.52323,0.005 1.00538,0.0679 1.44647,0.19108 0.44108,0.12143 0.82323,0.30358 1.14467,0.54465 0.32322,0.24287 0.57144,0.54466 0.74823,0.90896 0.17858,0.36429 0.26608,0.7893 0.26608,1.2786 0,0.32858 -0.0446,0.6268 -0.13572,0.89466 -0.0911,0.26965 -0.21786,0.51251 -0.38215,0.73038 -0.16251,0.21607 -0.35894,0.40715 -0.58752,0.57144 -0.22857,0.16607 -0.48037,0.30536 -0.75537,0.41965 l 2.15541,4.0751 v 0.0786 h -1.79112 z m -7.03963,-5.91283 0.0143,6.49302 c -0.005,0.49644 -0.0893,0.95181 -0.2518,1.36075 -0.16429,0.41072 -0.39286,0.76252 -0.68751,1.05538 -0.29287,0.29286 -0.64823,0.51965 -1.06789,0.67859 -0.41608,0.15893 -0.88395,0.23929 -1.40181,0.23929 -0.50537,0 -0.96253,-0.0804 -1.37325,-0.23929 -0.41073,-0.15894 -0.76252,-0.38394 -1.05717,-0.67502 -0.29465,-0.29108 -0.52323,-0.64287 -0.68573,-1.0536 -0.16429,-0.40893 -0.24822,-0.86609 -0.25179,-1.3661 l 0.0143,-6.49302 h 1.65183 l 0.0125,6.49302 c 0.005,0.29643 0.0446,0.56965 0.11964,0.81788 0.075,0.25 0.18215,0.46251 0.32323,0.64108 0.13929,0.18037 0.31429,0.32144 0.52144,0.42144 0.20715,0.1 0.44822,0.15001 0.72502,0.15001 0.27857,0 0.52679,-0.05 0.74108,-0.15001 0.2143,-0.1 0.39466,-0.24107 0.5393,-0.42144 0.14465,-0.17857 0.25358,-0.39108 0.33037,-0.64108 0.0732,-0.24823 0.1125,-0.52145 0.11786,-0.81788 l 0.0143,-6.49302 z m -11.66117,4.22261 c -0.004,-0.3643 -0.0393,-0.72681 -0.10536,-1.08574 -0.0643,-0.35894 -0.17501,-0.68038 -0.32858,-0.96074 -0.15536,-0.28394 -0.35894,-0.51073 -0.61252,-0.68752 -0.25536,-0.175 -0.57323,-0.2625 -0.95538,-0.2625 -0.37858,0 -0.69287,0.0875 -0.94288,0.2625 -0.24822,0.17679 -0.44822,0.40537 -0.59466,0.6893 -0.14821,0.28394 -0.25,0.60359 -0.30893,0.96253 -0.0571,0.35715 -0.0893,0.71787 -0.0946,1.08217 v 1.25003 c 0.005,0.36429 0.0393,0.72501 0.0982,1.08395 0.0625,0.35715 0.16429,0.67859 0.31251,0.96431 0.14643,0.28572 0.34643,0.51787 0.59465,0.69645 0.25001,0.17679 0.5643,0.26608 0.94288,0.26608 0.38216,0 0.70002,-0.0893 0.95538,-0.26608 0.25358,-0.17858 0.45716,-0.40894 0.61252,-0.69288 0.15357,-0.28572 0.26251,-0.60537 0.32501,-0.96609 0.0625,-0.35894 0.0982,-0.72145 0.10179,-1.08574 z m 1.68754,1.25003 c 0,0.57322 -0.0768,1.12324 -0.23215,1.64825 -0.15358,0.5268 -0.38394,0.98931 -0.6893,1.39289 -0.30537,0.40001 -0.68752,0.71966 -1.14825,0.95717 -0.45894,0.2375 -0.99645,0.35536 -1.61254,0.35536 -0.61251,0 -1.14467,-0.11964 -1.59646,-0.35893 -0.45359,-0.23929 -0.83038,-0.56073 -1.13217,-0.96074 -0.30001,-0.4018 -0.5268,-0.86431 -0.67859,-1.38932 -0.15179,-0.52323 -0.22679,-1.07146 -0.22679,-1.64468 v -1.23753 c 0,-0.38216 0.0321,-0.75359 0.10179,-1.11789 0.0661,-0.36429 0.16786,-0.70716 0.3,-1.03038 0.13394,-0.32144 0.30001,-0.61787 0.49644,-0.89109 0.19822,-0.27322 0.43216,-0.50716 0.70002,-0.70181 0.26965,-0.19643 0.57323,-0.35 0.91074,-0.46072 0.33929,-0.10893 0.71073,-0.16608 1.11788,-0.16608 0.61609,0 1.1536,0.11965 1.61433,0.36073 0.45894,0.23929 0.84287,0.56072 1.15181,0.96073 0.30715,0.40359 0.53751,0.86788 0.69109,1.39647 0.15536,0.52679 0.23215,1.07681 0.23215,1.65004 z m -15.48431,-0.17233 v 3.08936 h 1.83398 c 0.26607,-0.004 0.50894,-0.0429 0.72859,-0.11607 0.21964,-0.0732 0.40715,-0.17501 0.56787,-0.30358 0.15714,-0.12857 0.28215,-0.28572 0.37322,-0.47323 0.0911,-0.18571 0.1375,-0.39286 0.1375,-0.62501 0,-0.24465 -0.0393,-0.46251 -0.11964,-0.65538 -0.0804,-0.19464 -0.19465,-0.35715 -0.34287,-0.49108 -0.15,-0.13215 -0.33215,-0.23572 -0.54644,-0.30894 -0.21429,-0.0732 -0.45537,-0.11071 -0.72145,-0.11607 z m 0,-1.21967 h 1.61076 c 0.25179,-0.004 0.48572,-0.0357 0.70359,-0.0964 0.21607,-0.0589 0.40358,-0.14822 0.56251,-0.26608 0.15893,-0.11607 0.28572,-0.26072 0.37858,-0.43215 0.0929,-0.17144 0.13929,-0.36787 0.13929,-0.58752 0,-0.24465 -0.0429,-0.45358 -0.13215,-0.62858 -0.0893,-0.17144 -0.21429,-0.3143 -0.37501,-0.42501 -0.16071,-0.10894 -0.35,-0.19108 -0.56965,-0.24287 -0.21965,-0.0518 -0.46073,-0.0786 -0.72145,-0.0839 h -1.59647 z m -1.68754,5.61442 v -9.69488 h 3.25544 c 0.49108,0.005 0.94824,0.0589 1.37503,0.16072 0.42858,0.10179 0.80181,0.26072 1.12146,0.47323 0.31965,0.2125 0.56965,0.48394 0.7518,0.8143 0.18215,0.33037 0.27144,0.72323 0.26608,1.17682 -0.004,0.47858 -0.14465,0.88752 -0.41965,1.22681 -0.27501,0.34108 -0.64645,0.60359 -1.11253,0.78931 0.28393,0.075 0.53751,0.18393 0.75895,0.32322 0.22143,0.13929 0.40715,0.30715 0.55715,0.5018 0.14822,0.19643 0.26429,0.41251 0.34287,0.64823 0.0786,0.23929 0.11964,0.49108 0.11964,0.75716 0,0.46072 -0.0893,0.86788 -0.26786,1.21789 -0.17679,0.35 -0.42322,0.64287 -0.73752,0.87859 -0.31608,0.23572 -0.6893,0.41429 -1.11967,0.53573 -0.43215,0.12321 -0.89823,0.1875 -1.39825,0.19107 z m -13.86355,-9.69488 v 1.31789 h -4.85904 v 2.73578 h 4.19474 v 1.29289 h -4.19474 v 3.04293 h 4.90905 v 1.30361 h -6.59659 v -9.6931 z m -15.39251,-8.9e-4 v 4.05545 h 3.46615 v -4.05545 h 1.63754 v 9.69488 h -1.63754 v -4.32689 h -3.46615 v 4.32689 h -1.63218 v -9.69488 z m -4.53386,-1.8e-4 v 1.31968 h -3.13043 v 8.3752 h -1.67326 v -8.3752 h -3.109 v -1.31968 z M 158.59968,77.092928 110.21995,106.97579 c -6.03229,3.52687 -10.482401,7.48411 -10.484186,14.7575 v 59.61394 c -0.0036,4.35546 1.755396,7.17696 4.455466,7.99484 -0.88574,0.15357 -1.78219,0.26072 -2.68578,0.26072 -2.832212,0 -5.625137,-0.76966 -8.076981,-2.22505 L 42.289734,157.027 C 37.287827,154.05729 34.18061,148.51787 34.18061,142.56772 V 81.857329 c 0,-5.950144 3.107217,-11.489564 8.107338,-14.457492 l 51.138735,-30.35609 c 2.45363,-1.455393 5.246555,-2.225054 8.076977,-2.225054 2.83221,0 5.62514,0.769661 8.07698,2.225054 l 51.14052,30.35609 c 4.21439,2.501846 7.05733,6.834093 7.85556,11.693139 -1.69469,-3.61973 -5.51978,-4.603682 -9.97704,-2.000048 z m -8.88771,74.662512 c 0,0.40537 -0.0518,0.78217 -0.38929,0.9786 l -12.93067,7.85912 c -0.33751,0.19643 -0.61073,0.0268 -0.61073,-0.37858 v -3.33223 c 0,-0.40536 0.25,-0.6268 0.58751,-0.82502 l 12.73424,-7.61982 c 0.33751,-0.19822 0.61073,-0.0268 0.60894,0.37858 z m -26.80958,7.33768 0.0839,4.36082 c 0.005,0.5268 -0.33573,1.12681 -0.74824,1.33575 l -2.5822,1.48754 c -0.4143,0.20893 -0.75359,-0.0464 -0.75895,-0.57323 l -0.0446,-4.28939 c -2.21256,0.91966 -4.45368,1.1411 -5.88407,0.56608 -0.27144,-0.10536 -0.38751,-0.50358 -0.28037,-0.95716 l 0.93574,-3.94296 c 0.075,-0.31072 0.23929,-0.62144 0.46251,-0.81966 0.0786,-0.0768 0.16072,-0.13572 0.24286,-0.17679 0.14822,-0.075 0.29287,-0.0911 0.41787,-0.0429 1.54111,0.51787 3.51437,0.27501 5.41263,-0.68573 2.41077,-1.21967 4.02331,-3.67866 3.99831,-6.12157 -0.0232,-2.21613 -1.22324,-3.13758 -4.14117,-3.15901 -3.71259,0.0107 -7.17696,-0.71966 -7.2341,-6.18943 -0.0464,-4.5019 2.2947,-9.18594 6.00014,-12.14673 l -0.0464,-4.40367 c -0.005,-0.5393 0.32501,-1.13575 0.75002,-1.35004 l 2.50006,-1.59646 c 0.41251,-0.20894 0.7518,0.0482 0.75895,0.58751 l 0.0411,4.40546 c 1.84469,-0.73216 3.44651,-0.93038 4.89833,-0.59465 0.3143,0.0839 0.45359,0.51251 0.32501,1.02145 l -0.96967,3.90367 c -0.075,0.29465 -0.24107,0.59287 -0.44108,0.78037 -0.0839,0.0821 -0.16964,0.14465 -0.25536,0.18751 -0.13036,0.0661 -0.25894,0.0875 -0.38037,0.0625 -0.6643,-0.14822 -2.23934,-0.49466 -4.71797,0.76073 -2.60006,1.3161 -3.50723,3.57509 -3.49115,5.25191 0.0214,2.00184 1.04824,2.61078 4.59475,2.6715 4.72511,0.0768 6.76802,2.1429 6.81624,6.90016 0.0482,4.67333 -2.44649,9.69131 -6.26266,12.76638 z M 162.50871,64.290833 111.36819,33.936529 c -3.05186,-1.812544 -6.4573,-2.717923 -9.86453,-2.717923 -3.405436,0 -6.812661,0.905379 -9.86452,2.717923 L 40.500405,64.290833 c -6.103719,3.623302 -9.862738,10.319892 -9.862738,17.566496 v 60.710391 c 0,7.24482 3.759019,13.9432 9.864524,17.5665 l 51.138734,30.35073 c 3.05186,1.81255 6.455513,2.71614 9.864525,2.71614 3.40544,0 6.81088,-0.90359 9.86274,-2.71614 l 51.13873,-30.35073 c 6.10373,-3.6233 9.86632,-10.32168 9.86632,-17.5665 V 81.857329 c 0,-7.246604 -3.76259,-13.943194 -9.86453,-17.566496 z m 250.25176,12.724772 h -8.27341 c -1.42861,0 -2.58757,1.100026 -2.58757,2.458987 V 105.15557 H 378.85251 V 79.474592 c 0,-1.358961 -1.15717,-2.458987 -2.58578,-2.458987 h -8.22698 c -1.42861,0 -2.58756,1.100026 -2.58756,2.458987 v 65.451578 c 0,1.35896 1.15895,2.45899 2.58756,2.45899 h 8.22698 c 1.42861,0 2.58578,-1.10003 2.58578,-2.45899 v -27.79353 h 23.04698 v 27.79353 c 0,1.35896 1.15896,2.45899 2.58757,2.45899 h 8.27341 c 1.42861,0 2.58756,-1.10003 2.58756,-2.45899 V 79.474592 c 0,-1.358961 -1.15895,-2.458987 -2.58756,-2.458987 m -57.34406,40.081325 c -1.16967,-1.50004 -2.55006,-2.85543 -4.10903,-4.03403 -1.49825,-1.13574 -3.13222,-2.16433 -4.85547,-3.06436 -1.69112,-0.88216 -3.47866,-1.67504 -5.31442,-2.36077 -1.76433,-0.65358 -3.55187,-1.2536 -5.33763,-1.78933 -1.51432,-0.44108 -3.13579,-0.95895 -4.81976,-1.53753 -1.56253,-0.53395 -3.03043,-1.21075 -4.36439,-2.01255 -1.20717,-0.72502 -2.21076,-1.61611 -2.98578,-2.650066 -0.67145,-0.89645 -1.01074,-2.008977 -1.03217,-3.360796 0,-1.341103 0.2625,-2.460773 0.80538,-3.428654 0.56787,-1.008953 1.30717,-1.835758 2.26076,-2.523275 0.98753,-0.714303 2.14113,-1.260745 3.42687,-1.623254 3.00722,-0.851806 6.38051,-0.725017 8.81807,0.180362 1.31968,0.489298 2.46971,1.182171 3.41258,2.053621 0.95539,0.885736 1.73933,1.96969 2.32685,3.219721 0.61787,1.316103 1.04288,2.816139 1.26253,4.455464 0.1625,1.226816 1.26253,2.148267 2.56613,2.148267 h 8.98057 c 0.69645,0 1.36254,-0.26429 1.84826,-0.73752 0.48752,-0.471438 0.75359,-1.110739 0.73931,-1.77147 -0.0714,-3.353652 -0.84824,-6.450155 -2.31077,-9.200222 -1.44647,-2.712565 -3.3983,-5.059051 -5.79836,-6.975168 -2.36791,-1.887546 -5.11619,-3.369724 -8.16805,-4.410821 -5.79121,-1.96969 -12.22708,-2.07505 -18.37545,-0.255363 -2.95721,0.876807 -5.64299,2.182195 -7.98233,3.875093 -2.38577,1.725042 -4.34296,3.871522 -5.818,6.373368 -1.52146,2.578634 -2.29291,5.523348 -2.29291,8.755569 0,3.25365 0.78395,6.150144 2.32863,8.610924 1.4661,2.33398 3.38044,4.38582 5.68942,6.09479 2.22327,1.64825 4.7144,3.05364 7.40196,4.17867 2.58042,1.08038 5.15191,2.01612 7.6484,2.78578 1.63933,0.5018 3.3483,1.05896 5.12691,1.67683 1.61611,0.56251 3.11615,1.27146 4.45547,2.10719 1.2286,0.76609 2.20362,1.67861 2.97507,2.78578 0.68037,0.9786 1.01074,2.1947 1.01074,3.72152 0,1.35718 -0.28215,2.46613 -0.86252,3.38937 -0.63395,1.00895 -1.42682,1.81969 -2.42149,2.47863 -1.03574,0.68216 -2.24113,1.19646 -3.59116,1.52504 -3.23579,0.79287 -6.75552,0.66787 -9.53059,-0.18394 -1.48753,-0.45536 -2.81256,-1.13574 -3.93759,-2.02326 -1.12146,-0.88395 -2.05362,-1.98398 -2.77328,-3.26615 -0.73216,-1.3036 -1.22503,-2.8465 -1.46611,-4.58047 -0.16965,-1.22324 -1.26789,-2.13755 -2.56435,-2.13755 h -8.93414 c -0.70002,0 -1.36968,0.26787 -1.8554,0.74466 -0.48751,0.4768 -0.75181,1.12146 -0.73216,1.78576 0.10714,3.50544 0.99824,6.6948 2.65006,9.4788 1.61254,2.71971 3.74116,5.05369 6.32515,6.94124 2.53757,1.85719 5.45014,3.29829 8.65378,4.28225 3.1733,0.97323 6.46266,1.4661 9.77703,1.4661 2.96435,0 5.968,-0.40179 8.92521,-1.19288 3.01079,-0.80538 5.75728,-2.03041 8.16091,-3.63759 2.46435,-1.64826 4.5019,-3.73759 6.05372,-6.21444 1.60718,-2.56256 2.42149,-5.57513 2.42149,-8.94664 0,-2.20898 -0.34287,-4.27332 -1.01788,-6.13229 -0.66788,-1.83398 -1.60897,-3.53759 -2.80007,-5.06441 m -74.96592,1.1861 h -11.30027 l 5.69478,-17.54864 z m 0.56609,-39.552741 c -0.34108,-1.021453 -1.33754,-1.714327 -2.46613,-1.714327 h -7.32697 c -1.12324,0 -2.11612,0.687516 -2.46077,1.703612 l -22.22018,65.451576 c -0.25358,0.74824 -0.11607,1.56611 0.37144,2.20363 0.48751,0.63573 1.26431,1.01074 2.09112,1.01074 h 8.74664 c 1.13217,0 2.13398,-0.7018 2.4697,-1.7304 l 4.96619,-15.21823 h 19.15404 l 4.8769,15.20751 c 0.33215,1.03574 1.33753,1.74112 2.47506,1.74112 h 8.69842 c 0.82502,0 1.60004,-0.37323 2.08755,-1.00717 0.48752,-0.63216 0.62681,-1.44825 0.3768,-2.19648 z m -74.42841,38.042881 h 11.26992 c 1.59111,0.05 3.08043,0.30715 4.42868,0.76073 1.28395,0.42859 2.41255,1.04824 3.35722,1.83933 0.92324,0.77502 1.63218,1.70005 2.16077,2.81972 0.51787,1.10538 0.76966,2.41613 0.74287,3.94295 0,1.4411 -0.28393,2.72506 -0.84645,3.81616 -0.58037,1.13039 -1.34289,2.05541 -2.32327,2.82686 -1.02324,0.8018 -2.22505,1.43932 -3.56973,1.89468 -1.37146,0.46251 -2.84471,0.71252 -4.33403,0.73574 h -10.88598 z m 19.3594,-16.60576 c -0.58752,0.99824 -1.33396,1.81612 -2.2822,2.49828 -0.98395,0.70537 -2.13041,1.25717 -3.41437,1.63397 -1.33217,0.39465 -2.71256,0.60715 -4.05367,0.63215 h -9.60916 V 89.038573 h 9.32344 c 1.49825,0.02679 2.97864,0.212506 4.40368,0.555371 1.31075,0.312507 2.47506,0.803591 3.45723,1.453606 0.91966,0.608944 1.63396,1.371462 2.18576,2.328628 0.5268,0.917879 0.79466,2.094694 0.79466,3.496513 0,1.292888 -0.26429,2.3697 -0.80537,3.294719 z m 12.5628,14.40035 c -1.27503,-1.53932 -2.81257,-2.8715 -4.56975,-3.95902 -0.21608,-0.13215 -0.43394,-0.26072 -0.65537,-0.38751 1.40181,-0.93574 2.64827,-2.03755 3.7108,-3.27865 1.13574,-1.32682 2.03755,-2.83936 2.68578,-4.49118 0.6518,-1.66254 1.00002,-3.510802 1.03752,-5.51085 0.0357,-3.467941 -0.69108,-6.5198 -2.16255,-9.073433 -1.44646,-2.510775 -3.41258,-4.603683 -5.84121,-6.226937 -2.35542,-1.56968 -5.06798,-2.742923 -8.06448,-3.489369 -2.90186,-0.721446 -5.91086,-1.103599 -8.97343,-1.135742 h -20.47014 c -1.42861,0 -2.58756,1.101812 -2.58756,2.460773 v 65.449798 c 0,1.35896 1.15895,2.46077 2.58756,2.46077 h 22.05768 c 3.17507,-0.0321 6.30193,-0.51073 9.29308,-1.41968 3.03757,-0.92502 5.76621,-2.27862 8.11091,-4.02688 2.40006,-1.78754 4.33939,-4.03581 5.76442,-6.68052 1.44825,-2.68221 2.16434,-5.79121 2.12862,-9.21451 0,-2.21434 -0.35893,-4.31617 -1.06431,-6.24658 -0.70537,-1.92861 -1.71075,-3.68758 -2.98757,-5.23048 z"
       inkscape:label="Bash" />
  </g>
  <metadata
     id="metadata2208">
    <rdf:RDF>
      <cc:Work
         rdf:about="">
        <dc:title>BASH_logo-transparent-bg-bw</dc:title>
      </cc:Work>
    </rdf:RDF>
  </metadata>
</svg>
