<?xml version="1.0" encoding="UTF-8" standalone="no"?>
<!-- Created with Inkscape (http://www.inkscape.org/) -->

<svg
   width="55.637032mm"
   height="100mm"
   viewBox="0 0 55.637027 99.999999"
   version="1.1"
   id="svg2256"
   xml:space="preserve"
   sodipodi:docname="Binarletti_Sticker.svg"
   inkscape:version="1.2.2 (b0a8486541, 2022-12-01)"
   inkscape:export-filename="Binarletti_Sticker.png"
   inkscape:export-xdpi="300"
   inkscape:export-ydpi="300"
   xmlns:inkscape="http://www.inkscape.org/namespaces/inkscape"
   xmlns:sodipodi="http://sodipodi.sourceforge.net/DTD/sodipodi-0.dtd"
   xmlns="http://www.w3.org/2000/svg"
   xmlns:svg="http://www.w3.org/2000/svg"><sodipodi:namedview
     id="namedview2258"
     pagecolor="#ffffff"
     bordercolor="#999999"
     borderopacity="1"
     inkscape:showpageshadow="0"
     inkscape:pageopacity="0"
     inkscape:pagecheckerboard="true"
     inkscape:deskcolor="#d1d1d1"
     inkscape:document-units="mm"
     showgrid="false"
     showguides="true"
     inkscape:zoom="0.48127083"
     inkscape:cx="296.09108"
     inkscape:cy="716.85209"
     inkscape:window-width="1920"
     inkscape:window-height="1048"
     inkscape:window-x="0"
     inkscape:window-y="0"
     inkscape:window-maximized="1"
     inkscape:current-layer="layer1" /><defs
     id="defs2253"><rect
       x="-529.50928"
       y="-83.042419"
       width="618.90497"
       height="512.07208"
       id="rect331" /><inkscape:path-effect
       effect="fillet_chamfer"
       id="path-effect7304"
       is_visible="true"
       lpeversion="1"
       nodesatellites_param="F,0,0,1,0,0,0,1 @ F,0,0,1,0,0,0,1 @ F,0,0,1,0,0,0,1 @ F,0,0,1,0,0,0,1 @ F,0,0,1,0,0,0,1 @ F,0,0,1,0,0,0,1 @ F,0,0,1,0,0,0,1 @ F,0,0,1,0,0,0,1 @ F,0,0,1,0,0,0,1 @ F,0,0,1,0,0,0,1 @ F,0,1,1,0,0.26458333,0,1 @ F,0,0,1,0,0,0,1 @ F,0,0,1,0,0,0,1 @ F,0,0,1,0,0,0,1 @ F,0,0,1,0,0,0,1 @ F,0,0,1,0,0,0,1 @ F,0,0,1,0,0,0,1 @ F,0,0,1,0,0,0,1 @ F,0,0,1,0,0,0,1"
       unit="px"
       method="auto"
       mode="F"
       radius="1"
       chamfer_steps="1"
       flexible="false"
       use_knot_distance="true"
       apply_no_radius="true"
       apply_with_radius="true"
       only_selected="true"
       hide_knots="false" /><inkscape:path-effect
       effect="fillet_chamfer"
       id="path-effect7302"
       is_visible="false"
       lpeversion="1"
       nodesatellites_param="F,0,0,1,0,0,0,1 @ F,0,0,1,0,0,0,1 @ F,0,0,1,0,0,0,1 @ F,0,0,1,0,0,0,1 @ F,0,0,1,0,0,0,1 @ F,0,0,1,0,0,0,1 @ F,0,0,1,0,0,0,1 @ F,0,0,1,0,0,0,1 @ F,0,0,1,0,0,0,1 @ F,0,0,1,0,0,0,1 @ F,0,0,1,0,0.22597489,0,1 @ F,0,0,1,0,0,0,1 @ F,0,0,1,0,0,0,1 @ F,0,0,1,0,0,0,1 @ F,0,0,1,0,0,0,1 @ F,0,0,1,0,0,0,1 @ F,0,0,1,0,0,0,1 @ F,0,0,1,0,0,0,1 @ F,0,0,1,0,0,0,1"
       unit="px"
       method="auto"
       mode="F"
       radius="1"
       chamfer_steps="1"
       flexible="false"
       use_knot_distance="true"
       apply_no_radius="true"
       apply_with_radius="true"
       only_selected="false"
       hide_knots="false" /><inkscape:path-effect
       effect="fillet_chamfer"
       id="path-effect7273"
       is_visible="false"
       lpeversion="1"
       nodesatellites_param="F,0,0,1,0,0,0,1 @ F,0,0,1,0,0,0,1 @ F,0,0,1,0,0,0,1 @ F,0,0,1,0,0,0,1 @ F,0,0,1,0,0,0,1 @ F,0,0,1,0,0,0,1 @ F,0,0,1,0,0,0,1 @ F,0,0,1,0,0,0,1 @ F,0,0,1,0,0,0,1 @ F,0,0,1,0,0,0,1 @ F,0,0,1,0,0.44789724,0,1 @ F,0,0,1,0,0,0,1 @ F,0,0,1,0,0,0,1 @ F,0,0,1,0,0,0,1 @ F,0,0,1,0,0,0,1 @ F,0,0,1,0,0,0,1 @ F,0,0,1,0,0,0,1 @ F,0,0,1,0,0,0,1 @ F,0,0,1,0,0,0,1 @ F,0,0,1,0,0,0,1"
       unit="px"
       method="auto"
       mode="F"
       radius="1"
       chamfer_steps="1"
       flexible="false"
       use_knot_distance="true"
       apply_no_radius="true"
       apply_with_radius="true"
       only_selected="false"
       hide_knots="false" /><inkscape:path-effect
       effect="fillet_chamfer"
       id="path-effect6486"
       is_visible="true"
       lpeversion="1"
       nodesatellites_param="F,0,0,1,0,3,0,1 @ F,0,0,1,0,0,0,1 @ F,0,0,1,0,1.5,0,1 @ F,0,0,1,0,0.26458333,0,1 @ F,0,0,1,0,0.26458333,0,1 @ F,0,0,1,0,0.26458333,0,1 @ F,0,0,1,0,3,0,1"
       unit="px"
       method="auto"
       mode="F"
       radius="1"
       chamfer_steps="1"
       flexible="false"
       use_knot_distance="true"
       apply_no_radius="true"
       apply_with_radius="true"
       only_selected="false"
       hide_knots="false" /><inkscape:path-effect
       effect="fillet_chamfer"
       id="path-effect6483"
       is_visible="true"
       lpeversion="1"
       nodesatellites_param="F,0,0,1,0,0.26458333,0,1 @ F,0,0,1,0,2,0,1 @ F,0,0,1,0,0.26458333,0,1 @ F,0,0,1,0,0.26458333,0,1"
       unit="px"
       method="auto"
       mode="F"
       radius="1"
       chamfer_steps="1"
       flexible="false"
       use_knot_distance="true"
       apply_no_radius="true"
       apply_with_radius="true"
       only_selected="false"
       hide_knots="false" /><inkscape:path-effect
       effect="fillet_chamfer"
       id="path-effect6481"
       is_visible="false"
       lpeversion="1"
       nodesatellites_param="F,0,0,1,0,0.26458333,0,1 @ F,0,0,1,0,0.26458333,0,1 @ F,0,0,1,0,0.26458333,0,1 @ F,0,0,1,0,0.26458333,0,1"
       unit="px"
       method="auto"
       mode="F"
       radius="1"
       chamfer_steps="1"
       flexible="false"
       use_knot_distance="true"
       apply_no_radius="true"
       apply_with_radius="true"
       only_selected="false"
       hide_knots="false" /><inkscape:path-effect
       effect="fillet_chamfer"
       id="path-effect6452"
       is_visible="true"
       lpeversion="1"
       nodesatellites_param="F,0,0,1,0,0.26458333,0,1 @ F,0,0,1,0,0.26458333,0,1 @ F,0,0,1,0,0.26458333,0,1 @ F,0,0,1,0,0.26458333,0,1"
       unit="px"
       method="auto"
       mode="F"
       radius="1"
       chamfer_steps="1"
       flexible="false"
       use_knot_distance="true"
       apply_no_radius="true"
       apply_with_radius="true"
       only_selected="false"
       hide_knots="false" /><inkscape:path-effect
       effect="fillet_chamfer"
       id="path-effect6450"
       is_visible="true"
       lpeversion="1"
       nodesatellites_param="F,0,0,1,0,0.07000875,0,1 @ F,0,0,1,0,0.07000875,0,1 @ F,0,0,1,0,0.07000875,0,1 @ F,0,0,1,0,0.07000875,0,1"
       unit="px"
       method="auto"
       mode="F"
       radius="0.2646"
       chamfer_steps="1"
       flexible="false"
       use_knot_distance="false"
       apply_no_radius="true"
       apply_with_radius="true"
       only_selected="false"
       hide_knots="false" /><inkscape:path-effect
       effect="fillet_chamfer"
       id="path-effect6448"
       is_visible="true"
       lpeversion="1"
       nodesatellites_param="F,0,0,1,0,0,0,1 @ F,0,0,1,0,0.01,0,1 @ F,0,0,1,0,0,0,1 @ F,0,0,1,0,0,0,1"
       unit="px"
       method="auto"
       mode="F"
       radius="0.1"
       chamfer_steps="1"
       flexible="false"
       use_knot_distance="false"
       apply_no_radius="true"
       apply_with_radius="true"
       only_selected="true"
       hide_knots="false" /><inkscape:path-effect
       effect="fillet_chamfer"
       id="path-effect6388"
       is_visible="true"
       lpeversion="1"
       nodesatellites_param="F,0,0,1,0,0.26458333,0,1 @ F,0,0,1,0,0.26458333,0,1 @ F,0,0,1,0,0.26458333,0,1 @ F,0,0,1,0,0.26458333,0,1 @ F,0,0,1,0,0.26458333,0,1 @ F,0,0,1,0,0.26458333,0,1 @ F,0,0,1,0,0.26458333,0,1 @ F,0,0,1,0,0.26458333,0,1 @ F,0,0,1,0,0.26458333,0,1 @ F,0,0,1,0,0.26458333,0,1 @ F,0,0,1,0,0.26458333,0,1 @ F,0,0,1,0,0.26458333,0,1 @ F,0,0,1,0,0.26458333,0,1 @ F,0,0,1,0,0.26458333,0,1 @ F,0,0,1,0,0.26458333,0,1 @ F,0,0,1,0,0.26458333,0,1 | F,0,0,1,0,0.26458333,0,1 @ F,0,0,1,0,0.26458333,0,1 @ F,0,0,1,0,0.26458333,0,1 @ F,0,0,1,0,0.26458333,0,1"
       unit="px"
       method="auto"
       mode="F"
       radius="1"
       chamfer_steps="1"
       flexible="false"
       use_knot_distance="true"
       apply_no_radius="true"
       apply_with_radius="true"
       only_selected="true"
       hide_knots="false" /><inkscape:path-effect
       effect="fillet_chamfer"
       id="path-effect3651"
       is_visible="true"
       lpeversion="1"
       nodesatellites_param="F,0,0,1,0,0.26458333,0,1 @ F,0,0,1,0,0.26458333,0,1 @ F,0,0,1,0,0.26458333,0,1 @ F,0,0,1,0,0.26458333,0,1"
       unit="px"
       method="auto"
       mode="F"
       radius="1"
       chamfer_steps="1"
       flexible="false"
       use_knot_distance="true"
       apply_no_radius="true"
       apply_with_radius="true"
       only_selected="false"
       hide_knots="false" /><inkscape:path-effect
       effect="fillet_chamfer"
       id="path-effect3648"
       is_visible="true"
       lpeversion="1"
       nodesatellites_param="F,0,0,1,0,0.26458333,0,1 @ F,0,0,1,0,0.26458333,0,1 @ F,0,0,1,0,0.26458333,0,1 @ F,0,0,1,0,0.26458333,0,1 @ F,0,0,1,0,0.26458333,0,1 @ F,0,0,1,0,0.26458333,0,1 @ F,0,0,1,0,0.26458333,0,1 @ F,0,0,1,0,0.26458333,0,1"
       unit="px"
       method="auto"
       mode="F"
       radius="1"
       chamfer_steps="1"
       flexible="false"
       use_knot_distance="true"
       apply_no_radius="true"
       apply_with_radius="true"
       only_selected="false"
       hide_knots="false" /><inkscape:path-effect
       effect="fillet_chamfer"
       id="path-effect3646"
       is_visible="true"
       lpeversion="1"
       nodesatellites_param="F,0,0,1,0,0.26458333,0,1 @ F,0,0,1,0,0.26458333,0,1 @ F,0,0,1,0,0.26458333,0,1 @ F,0,0,1,0,0.26458333,0,1 @ F,0,0,1,0,0.26458333,0,1 @ F,0,0,1,0,0.26458333,0,1 @ F,0,0,1,0,0.26458333,0,1 @ F,0,0,1,0,0.26458333,0,1"
       unit="px"
       method="auto"
       mode="F"
       radius="1"
       chamfer_steps="1"
       flexible="false"
       use_knot_distance="true"
       apply_no_radius="true"
       apply_with_radius="true"
       only_selected="false"
       hide_knots="false" /><inkscape:path-effect
       effect="fillet_chamfer"
       id="path-effect3644"
       is_visible="true"
       lpeversion="1"
       nodesatellites_param="F,0,0,1,0,8.674408,0,1 @ F,0,0,1,0,0.26458333,0,1 @ F,0,0,1,0,0.26458333,0,1 @ F,0,0,1,0,0.26458333,0,1 @ F,0,0,1,0,8.5112526,0,1 @ F,0,0,1,0,8.5112526,0,1 @ F,0,0,1,0,0.26458333,0,1 @ F,0,0,1,0,0.26458333,0,1 @ F,0,0,1,0,1.1458126,0,1 @ F,0,0,1,0,1.1458126,0,1 @ F,0,0,1,0,0.26458333,0,1 @ F,0,0,1,0,0.26458333,0,1 @ F,0,0,1,0,0.26458333,0,1 @ F,0,0,1,0,8.6745942,0,1 | F,0,0,1,0,1.4999962,0,1 @ F,0,0,1,0,1.4999962,0,1 @ F,0,0,1,0,0.26458333,0,1 @ F,0,0,1,0,0.26458333,0,1"
       unit="px"
       method="auto"
       mode="F"
       radius="1"
       chamfer_steps="1"
       flexible="false"
       use_knot_distance="true"
       apply_no_radius="true"
       apply_with_radius="true"
       only_selected="false"
       hide_knots="false" /><inkscape:path-effect
       effect="fillet_chamfer"
       id="path-effect3642"
       is_visible="true"
       lpeversion="1"
       nodesatellites_param="F,0,0,1,0,0.26458333,0,1 @ F,0,0,1,0,0.26458333,0,1 @ F,0,0,1,0,0.26458333,0,1 @ F,0,0,1,0,0.26458333,0,1 @ F,0,0,1,0,0.26458333,0,1 @ F,0,0,1,0,0.26458333,0,1 @ F,0,0,1,0,0.26458333,0,1 @ F,0,0,1,0,0.26458333,0,1"
       unit="px"
       method="auto"
       mode="F"
       radius="1"
       chamfer_steps="1"
       flexible="false"
       use_knot_distance="true"
       apply_no_radius="true"
       apply_with_radius="true"
       only_selected="false"
       hide_knots="false" /><inkscape:path-effect
       effect="fillet_chamfer"
       id="path-effect3640"
       is_visible="true"
       lpeversion="1"
       nodesatellites_param="F,0,0,1,0,0.26458333,0,1 @ F,0,0,1,0,0.26458333,0,1 @ F,0,0,1,0,0.26458333,0,1 @ F,0,0,1,0,0.26458333,0,1"
       unit="px"
       method="auto"
       mode="F"
       radius="1"
       chamfer_steps="1"
       flexible="false"
       use_knot_distance="true"
       apply_no_radius="true"
       apply_with_radius="true"
       only_selected="false"
       hide_knots="false" /><inkscape:path-effect
       effect="fillet_chamfer"
       id="path-effect3638"
       is_visible="true"
       lpeversion="1"
       nodesatellites_param="F,0,0,1,0,0.26458333,0,1 @ F,0,0,1,0,0.26458333,0,1 @ F,0,0,1,0,0.26458333,0,1 @ F,0,0,1,0,0.26458333,0,1 @ F,0,0,1,0,0.26458333,0,1 @ F,0,0,1,0,0.26458333,0,1 @ F,0,0,1,0,0.26458333,0,1 @ F,0,0,1,0,0.26458333,0,1 @ F,0,0,1,0,0.26458333,0,1 @ F,0,0,1,0,0.26458333,0,1 @ F,0,0,1,0,0.26458333,0,1 @ F,0,0,1,0,0.26458333,0,1 @ F,0,0,1,0,0.26458333,0,1 @ F,0,0,1,0,0.26458333,0,1 @ F,0,0,1,0,0.26458333,0,1 @ F,0,0,1,0,0.26458333,0,1 @ F,0,0,1,0,0.26458333,0,1 @ F,0,0,1,0,0.26458333,0,1 @ F,0,0,1,0,0.26458333,0,1 | F,0,0,1,0,0.26458333,0,1 @ F,0,0,1,0,0.26458333,0,1 @ F,0,0,1,0,0.26458333,0,1 @ F,0,0,1,0,0.26458333,0,1 | F,0,0,1,0,0.26458333,0,1 @ F,0,0,1,0,0.26458333,0,1 @ F,0,0,1,0,0.26458333,0,1 @ F,0,0,1,0,0.26458333,0,1"
       unit="px"
       method="auto"
       mode="F"
       radius="1"
       chamfer_steps="1"
       flexible="false"
       use_knot_distance="true"
       apply_no_radius="true"
       apply_with_radius="true"
       only_selected="false"
       hide_knots="false" /><inkscape:path-effect
       effect="fillet_chamfer"
       id="path-effect3634"
       is_visible="true"
       lpeversion="1"
       nodesatellites_param="F,0,0,1,0,8.6745942,0,1 @ F,0,0,1,0,0.26458333,0,1 @ F,0,0,1,0,0.26458333,0,1 @ F,0,0,1,0,0.26458333,0,1 @ F,0,0,1,0,0.26458333,0,1 @ F,0,0,1,0,0.26458333,0,1 @ F,0,0,1,0,0.26458333,0,1 @ F,0,0,1,0,8.6843478,0,1 | F,0,0,1,0,1.4999962,0,1 @ F,0,0,1,0,1.4999962,0,1 @ F,0,0,1,0,0.26458333,0,1 @ F,0,0,1,0,0.26458333,0,1"
       unit="px"
       method="auto"
       mode="F"
       radius="1"
       chamfer_steps="1"
       flexible="false"
       use_knot_distance="true"
       apply_no_radius="true"
       apply_with_radius="true"
       only_selected="false"
       hide_knots="false" /><inkscape:path-effect
       effect="fillet_chamfer"
       id="path-effect3651-9"
       is_visible="true"
       lpeversion="1"
       nodesatellites_param="F,0,0,1,0,0.26458333,0,1 @ F,0,0,1,0,0.26458333,0,1 @ F,0,0,1,0,0.26458333,0,1 @ F,0,0,1,0,0.26458333,0,1"
       unit="px"
       method="auto"
       mode="F"
       radius="1"
       chamfer_steps="1"
       flexible="false"
       use_knot_distance="true"
       apply_no_radius="true"
       apply_with_radius="true"
       only_selected="false"
       hide_knots="false" /><inkscape:path-effect
       effect="fillet_chamfer"
       id="path-effect3640-3"
       is_visible="true"
       lpeversion="1"
       nodesatellites_param="F,0,0,1,0,0.26458333,0,1 @ F,0,0,1,0,0.26458333,0,1 @ F,0,0,1,0,0.26458333,0,1 @ F,0,0,1,0,0.26458333,0,1"
       unit="px"
       method="auto"
       mode="F"
       radius="1"
       chamfer_steps="1"
       flexible="false"
       use_knot_distance="true"
       apply_no_radius="true"
       apply_with_radius="true"
       only_selected="false"
       hide_knots="false" /><inkscape:path-effect
       effect="fillet_chamfer"
       id="path-effect3644-1"
       is_visible="true"
       lpeversion="1"
       nodesatellites_param="F,0,0,1,0,8.674408,0,1 @ F,0,0,1,0,0,0,1 @ F,0,0,1,0,0,0,1 @ F,0,0,1,0,0,0,1 @ F,0,0,1,0,8.5112526,0,1 @ F,0,0,1,0,8.5112526,0,1 @ F,0,0,1,0,0.26458333,0,1 @ F,0,0,1,0,0.26458333,0,1 @ F,0,0,1,0,1.1458126,0,1 @ F,0,0,1,0,1.1458126,0,1 @ F,0,0,1,0,0.26458333,0,1 @ F,0,0,1,0,0.26458333,0,1 @ F,0,1,1,0,0,0,1 @ F,0,0,1,0,8.6745942,0,1 | F,0,0,1,0,1.4999962,0,1 @ F,0,0,1,0,1.4999962,0,1 @ F,0,0,1,0,0.26458333,0,1 @ F,0,0,1,0,0.26458333,0,1"
       unit="px"
       method="auto"
       mode="F"
       radius="0"
       chamfer_steps="1"
       flexible="false"
       use_knot_distance="true"
       apply_no_radius="true"
       apply_with_radius="true"
       only_selected="true"
       hide_knots="false" /><inkscape:path-effect
       effect="fillet_chamfer"
       id="path-effect3638-9"
       is_visible="false"
       lpeversion="1"
       nodesatellites_param="F,0,0,1,0,0.26458333,0,1 @ F,0,0,1,0,0.26458333,0,1 @ F,0,0,1,0,0.26458333,0,1 @ F,0,0,1,0,0.26458333,0,1 @ F,0,0,1,0,0.26458333,0,1 @ F,0,0,1,0,0.26458333,0,1 @ F,0,0,1,0,0.26458333,0,1 @ F,0,0,1,0,0.26458333,0,1 @ F,0,0,1,0,0.26458333,0,1 @ F,0,0,1,0,0.26458333,0,1 @ F,0,0,1,0,0.26458333,0,1 @ F,0,0,1,0,0.26458333,0,1 @ F,0,0,1,0,0.26458333,0,1 @ F,0,0,1,0,0.26458333,0,1 @ F,0,0,1,0,0.26458333,0,1 @ F,0,0,1,0,0.26458333,0,1 @ F,0,0,1,0,0.26458333,0,1 @ F,0,0,1,0,0.26458333,0,1 @ F,0,0,1,0,0.26458333,0,1 | F,0,0,1,0,0.26458333,0,1 @ F,0,0,1,0,0.26458333,0,1 @ F,0,0,1,0,0.26458333,0,1 @ F,0,0,1,0,0.26458333,0,1 | F,0,0,1,0,0.26458333,0,1 @ F,0,0,1,0,0.26458333,0,1 @ F,0,0,1,0,0.26458333,0,1 @ F,0,0,1,0,0.26458333,0,1"
       unit="px"
       method="auto"
       mode="F"
       radius="1"
       chamfer_steps="1"
       flexible="false"
       use_knot_distance="true"
       apply_no_radius="true"
       apply_with_radius="true"
       only_selected="false"
       hide_knots="false" /><inkscape:path-effect
       effect="fillet_chamfer"
       id="path-effect3634-4"
       is_visible="true"
       lpeversion="1"
       nodesatellites_param="F,0,0,1,0,8.6745942,0,1 @ F,0,0,1,0,0.26458333,0,1 @ F,0,0,1,0,0.26458333,0,1 @ F,0,0,1,0,0.26458333,0,1 @ F,0,0,1,0,0.26458333,0,1 @ F,0,0,1,0,0.26458333,0,1 @ F,0,0,1,0,0.26458333,0,1 @ F,0,0,1,0,8.6843478,0,1 | F,0,0,1,0,1.4999962,0,1 @ F,0,0,1,0,1.4999962,0,1 @ F,0,0,1,0,0.26458333,0,1 @ F,0,0,1,0,0.26458333,0,1"
       unit="px"
       method="auto"
       mode="F"
       radius="1"
       chamfer_steps="1"
       flexible="false"
       use_knot_distance="true"
       apply_no_radius="true"
       apply_with_radius="true"
       only_selected="false"
       hide_knots="false" /><inkscape:path-effect
       effect="fillet_chamfer"
       id="path-effect3642-7"
       is_visible="true"
       lpeversion="1"
       nodesatellites_param="F,0,0,1,0,0.26458333,0,1 @ F,0,1,1,0,0,0,1 @ F,0,0,1,0,0.26458333,0,1 @ F,0,0,1,0,0.26458333,0,1 @ F,0,0,1,0,0.26458333,0,1 @ F,0,0,1,0,0.26458333,0,1 @ F,0,0,1,0,0.26458333,0,1 @ F,0,0,1,0,0.26458333,0,1"
       unit="px"
       method="auto"
       mode="F"
       radius="0"
       chamfer_steps="1"
       flexible="false"
       use_knot_distance="true"
       apply_no_radius="true"
       apply_with_radius="true"
       only_selected="true"
       hide_knots="false" /><inkscape:path-effect
       effect="fillet_chamfer"
       id="path-effect3648-8"
       is_visible="true"
       lpeversion="1"
       nodesatellites_param="F,0,0,1,0,0.26458333,0,1 @ F,0,0,1,0,0.26458333,0,1 @ F,0,0,1,0,0.26458333,0,1 @ F,0,0,1,0,0.26458333,0,1 @ F,0,0,1,0,0.26458333,0,1 @ F,0,0,1,0,0.26458333,0,1 @ F,0,0,1,0,0.26458333,0,1 @ F,0,0,1,0,0.26458333,0,1"
       unit="px"
       method="auto"
       mode="F"
       radius="1"
       chamfer_steps="1"
       flexible="false"
       use_knot_distance="true"
       apply_no_radius="true"
       apply_with_radius="true"
       only_selected="false"
       hide_knots="false" /><inkscape:path-effect
       effect="fillet_chamfer"
       id="path-effect3646-4"
       is_visible="true"
       lpeversion="1"
       nodesatellites_param="F,0,0,1,0,0.26458333,0,1 @ F,0,0,1,0,0.26458333,0,1 @ F,0,0,1,0,0.26458333,0,1 @ F,0,0,1,0,0.26458333,0,1 @ F,0,0,1,0,0.26458333,0,1 @ F,0,0,1,0,0.26458333,0,1 @ F,0,0,1,0,0.26458333,0,1 @ F,0,0,1,0,0.26458333,0,1"
       unit="px"
       method="auto"
       mode="F"
       radius="1"
       chamfer_steps="1"
       flexible="false"
       use_knot_distance="true"
       apply_no_radius="true"
       apply_with_radius="true"
       only_selected="false"
       hide_knots="false" /><inkscape:path-effect
       effect="fillet_chamfer"
       id="path-effect3638-9-0"
       is_visible="true"
       lpeversion="1"
       nodesatellites_param="F,0,1,1,0,0.54319154,0,1 @ F,0,0,1,0,0.26458333,0,1 @ F,0,0,1,0,0.26458333,0,1 @ F,0,0,1,0,0.26458333,0,1 @ F,0,0,1,0,0.26458333,0,1 @ F,0,0,1,0,0.26458333,0,1 @ F,0,0,1,0,0.26458333,0,1 @ F,0,0,1,0,0.26458333,0,1 @ F,0,0,1,0,0.26458333,0,1 @ F,0,0,1,0,0.26458333,0,1 @ F,0,0,1,0,0.26458333,0,1 @ F,0,0,1,0,0.26458333,0,1 @ F,0,0,1,0,0.26458333,0,1 @ F,0,0,1,0,0.26458333,0,1 @ F,0,0,1,0,0.26458333,0,1 @ F,0,1,1,0,0.26458333,0,1 @ F,0,0,1,0,0.26458333,0,1 @ F,0,0,1,0,0.26458333,0,1 @ F,0,0,1,0,1,0,1 | F,0,0,1,0,0.26458333,0,1 @ F,0,0,1,0,0.26458333,0,1 @ F,0,0,1,0,0.26458333,0,1 @ F,0,0,1,0,0.26458333,0,1"
       unit="px"
       method="auto"
       mode="F"
       radius="1"
       chamfer_steps="1"
       flexible="false"
       use_knot_distance="true"
       apply_no_radius="true"
       apply_with_radius="true"
       only_selected="true"
       hide_knots="false" /><inkscape:path-effect
       effect="fillet_chamfer"
       id="path-effect3638-9-1"
       is_visible="true"
       lpeversion="1"
       nodesatellites_param="F,0,0,1,0,0.26458333,0,1 @ F,0,0,1,0,0.26458333,0,1 @ F,0,0,1,0,0.26458333,0,1 @ F,0,0,1,0,0.26458333,0,1 @ F,0,0,1,0,0.26458333,0,1 @ F,0,0,1,0,0.26458333,0,1 @ F,0,0,1,0,0.26458333,0,1 @ F,0,0,1,0,0.26458333,0,1 @ F,0,0,1,0,0.26458333,0,1 @ F,0,0,1,0,0.26458333,0,1 @ F,0,0,1,0,0.26458333,0,1 @ F,0,0,1,0,0.26458333,0,1 @ F,0,0,1,0,0.26458333,0,1 @ F,0,0,1,0,0.26458333,0,1 @ F,0,0,1,0,0.26458333,0,1 @ F,0,0,1,0,0.26458333,0,1 @ F,0,0,1,0,0.26458333,0,1 @ F,0,0,1,0,0.26458333,0,1 @ F,0,0,1,0,0.26458333,0,1 | F,0,0,1,0,0.26458333,0,1 @ F,0,0,1,0,0.26458333,0,1 @ F,0,0,1,0,0.26458333,0,1 @ F,0,0,1,0,0.26458333,0,1 | F,0,0,1,0,0.26458333,0,1 @ F,0,0,1,0,0.26458333,0,1 @ F,0,0,1,0,0.26458333,0,1 @ F,0,0,1,0,0.26458333,0,1"
       unit="px"
       method="auto"
       mode="F"
       radius="1"
       chamfer_steps="1"
       flexible="false"
       use_knot_distance="true"
       apply_no_radius="true"
       apply_with_radius="true"
       only_selected="false"
       hide_knots="false" /><inkscape:path-effect
       effect="fillet_chamfer"
       id="path-effect3640-3-5"
       is_visible="true"
       lpeversion="1"
       nodesatellites_param="F,0,0,1,0,0.26458333,0,1 @ F,0,0,1,0,0.26458333,0,1 @ F,0,0,1,0,0.26458333,0,1 @ F,0,0,1,0,0.26458333,0,1"
       unit="px"
       method="auto"
       mode="F"
       radius="1"
       chamfer_steps="1"
       flexible="false"
       use_knot_distance="true"
       apply_no_radius="true"
       apply_with_radius="true"
       only_selected="false"
       hide_knots="false" /><inkscape:path-effect
       effect="fillet_chamfer"
       id="path-effect3640-3-5-7"
       is_visible="true"
       lpeversion="1"
       nodesatellites_param="F,0,0,1,0,0.26458333,0,1 @ F,0,0,1,0,0.26458333,0,1 @ F,0,0,1,0,0.26458333,0,1 @ F,0,0,1,0,0.26458333,0,1"
       unit="px"
       method="auto"
       mode="F"
       radius="1"
       chamfer_steps="1"
       flexible="false"
       use_knot_distance="true"
       apply_no_radius="true"
       apply_with_radius="true"
       only_selected="false"
       hide_knots="false" /><inkscape:path-effect
       effect="fillet_chamfer"
       id="path-effect3638-9-5"
       is_visible="false"
       lpeversion="1"
       nodesatellites_param="F,0,0,1,0,0.26458333,0,1 @ F,0,0,1,0,0.26458333,0,1 @ F,0,0,1,0,0.26458333,0,1 @ F,0,0,1,0,0.26458333,0,1 @ F,0,0,1,0,0.26458333,0,1 @ F,0,0,1,0,0.26458333,0,1 @ F,0,0,1,0,0.26458333,0,1 @ F,0,0,1,0,0.26458333,0,1 @ F,0,0,1,0,0.26458333,0,1 @ F,0,0,1,0,0.26458333,0,1 @ F,0,0,1,0,0.26458333,0,1 @ F,0,0,1,0,0.26458333,0,1 @ F,0,0,1,0,0.26458333,0,1 @ F,0,0,1,0,0.26458333,0,1 @ F,0,0,1,0,0.26458333,0,1 @ F,0,0,1,0,0.26458333,0,1 @ F,0,0,1,0,0.26458333,0,1 @ F,0,0,1,0,0.26458333,0,1 @ F,0,0,1,0,0.26458333,0,1 | F,0,0,1,0,0.26458333,0,1 @ F,0,0,1,0,0.26458333,0,1 @ F,0,0,1,0,0.26458333,0,1 @ F,0,0,1,0,0.26458333,0,1 | F,0,0,1,0,0.26458333,0,1 @ F,0,0,1,0,0.26458333,0,1 @ F,0,0,1,0,0.26458333,0,1 @ F,0,0,1,0,0.26458333,0,1"
       unit="px"
       method="auto"
       mode="F"
       radius="1"
       chamfer_steps="1"
       flexible="false"
       use_knot_distance="true"
       apply_no_radius="true"
       apply_with_radius="true"
       only_selected="false"
       hide_knots="false" /></defs><g
     inkscape:label="BinarlettiSticker"
     inkscape:groupmode="layer"
     id="layer1"
     transform="translate(50.20849,11.044917)"><path
       id="path10039-9"
       style="color:#000000;display:inline;opacity:0.99;fill:#ffffff;fill-opacity:1;stroke:none;stroke-width:1;stroke-linecap:round;stroke-opacity:1;-inkscape-stroke:none;paint-order:stroke fill markers"
       inkscape:label="Contour"
       d="m -48.80633,50.859307 c -0.522725,-0.697851 -0.895028,-1.403228 -1.40216,-2.112414 1.174548,-2.722852 2.21677,-5.45084 3.391243,-8.173724 0.20253,-1.779015 0.664182,-3.513057 1.085045,-5.24897 0.337063,-2.05043 1.51295,-3.978074 3.310955,-5.060683 0.376194,-0.975185 0.771454,-1.942924 1.183496,-2.903504 -0.409498,-0.206991 -0.799893,-0.454815 -1.143026,-0.760741 -0.625878,-0.552832 -1.126238,-1.301917 -1.338577,-2.093866 -0.291607,-1.149314 -0.03192,-2.381342 0.622682,-3.356015 -0.383358,-1.36236 -0.195143,-2.877599 0.526476,-4.096839 0.864738,-1.434162 2.39235,-2.349194 3.977811,-2.785924 -0.07415,-1.77519 -0.117949,-3.55142 -0.168993,-5.327374 0.595393,-0.014258 1.190795,-0.028184 1.786183,-0.042658 0.539312,-1.8805228 1.069724,-3.7645892 1.697799,-5.61794 0.139789,-0.6544029 0.451971,-1.2749048 0.930066,-1.7482856 0.57866,-0.5893361 1.39291,-0.97802594 2.239564,-0.98989293 0.468721,-0.44925098 1.082252,-0.77145851 1.705241,-0.87941872 1.448067,-0.2883281 2.956197,0.70208954 3.420792,2.07262635 0.539118,2.5243062 0.793003,5.0772692 1.097167,7.6414502 0.636466,0.06565 1.272815,0.1324349 1.909236,0.1985254 -0.195714,1.7693253 -0.388557,3.5389553 -0.579717,5.3087793 0.557476,0.212612 1.077368,0.47388 1.567528,0.803896 2.071961,1.234724 3.052107,4.003043 2.221411,6.267003 0.143723,0.276397 0.262248,0.566575 0.342105,0.867929 0.411894,1.474741 0.0273,3.192923 -1.058927,4.269716 -0.767739,0.778347 -1.820642,1.254023 -2.865935,1.448151 0.182999,2.638188 0.378837,5.275614 0.53013,7.915873 0.04634,0.276993 -0.03536,0.57999 0.101542,0.836203 0.787289,0.999412 1.59575,1.987424 2.383947,2.988272 0.09958,-0.230012 0.198947,-0.460119 0.298384,-0.690192 1.338836,-3.213669 2.862316,-6.351601 4.048395,-9.627117 -0.02832,-1.149776 -0.05715,-2.299544 -0.08586,-3.449312 -0.317446,-0.277435 -0.601644,-0.594993 -0.82565,-0.952879 -0.641415,-0.936397 -0.753088,-2.166213 -0.409255,-3.234751 0.13753,-0.435949 0.31703,-0.792308 0.562762,-1.155058 -0.09304,-0.336336 -0.159431,-0.680042 -0.18704,-1.028175 -0.07755,-0.95704 0.12761,-1.996276 0.598311,-2.862486 -0.06354,-2.101585 -0.124746,-4.203242 -0.191042,-6.304742 -0.06041,-1.7119999 -0.101527,-3.4249957 -0.186868,-5.1359051 -0.432211,-0.1916371 -0.738607,-0.565568 -1.12279,-0.828557 -1.280478,-0.5796798 -2.177311,-1.8562364 -2.401994,-3.231098 -0.484597,-1.42074416 -0.365101,-3.0963735 0.529948,-4.3331062 0.245429,-1.2633063 1.063853,-2.390674 2.16792,-3.0451514 0.05341,-0.3461389 0.119958,-0.6904835 0.21072,-1.0288932 0.216444,-0.7604572 0.465778,-1.5274485 0.896225,-2.1970207 0.78383,-1.2076054 2.080613,-2.0803484 3.529692,-2.2102944 1.089252,-0.07211 2.22631,0.261231 3.08468,0.94087 0.9890138,0.7967882 1.5603004,2.0762363 1.4899052,3.3450949 -0.026282,0.9540304 -0.5405297,1.7615603 -0.8266642,2.6514901 1.1431015,0.8420806 1.9280863,2.1688899 2.0574444,3.58822527 0.048666,0.51949386 -0.0028,0.98096604 -0.1050053,1.48319873 0.4309807,-0.13386542 0.852312,-0.29335603 1.3158471,-0.28493601 0.5178437,-0.51532165 1.2187661,-0.83186451 1.9431818,-0.9060976 1.2450482,-0.1089677 2.5658375,0.70833973 2.9846543,1.91835911 0.5724101,2.5742937 0.8148181,5.1939914 1.13020061,7.8109113 0.62643594,0.064575 1.25276268,0.1302446 1.87915659,0.1952442 -0.19437443,1.757556 -0.38842128,3.51515 -0.58300015,5.272684 0.43338594,0.164165 0.86026155,0.349613 1.25977425,0.585727 0.414779,0.253503 0.8534348,0.537434 1.1952702,0.855907 1.4825925,1.377537 2.052796,3.660866 1.3420983,5.548868 0.7310912,1.322022 0.672669,3.046852 -0.1109191,4.317249 -0.7454671,1.20373 -2.1030978,1.904064 -3.47019571,2.13073 0.0389079,0.547948 0.0769506,1.095955 0.11551974,1.643928 0.15613296,2.133244 0.28944757,4.268658 0.42995857,6.402527 0.033781,0.293849 -0.043091,0.626836 0.1277592,0.886098 0.3091661,0.45255 0.6730778,0.865845 1.0038023,1.302807 1.0200543,1.27895 2.182,2.52192 2.7096611,4.103867 0.5620047,1.715965 0.3761959,3.572594 -0.2559496,5.249169 0.2199846,0.416832 0.3765068,0.661609 0.510807,1.321316 0.1343003,0.659707 0.097263,4.430475 0.097263,4.430475 v 35.19663 H -50.20849 v -35.19663 c 0.01092,-1.606638 1.210107,-2.11105 1.40216,-2.899149 z"
       sodipodi:nodetypes="cccccccccccccccccccccccccccccccccccccccccccccccccccccccccccccccccccczccccc" /><g
       id="g1105"
       transform="matrix(0.28001392,0,0,0.28001392,-36.619708,-9.4339259)"
       inkscape:label="OminoConBiafi"
       style="stroke-width:3.57125"><path
         id="path10039"
         style="color:#000000;display:inline;opacity:0.99;fill:#202020;fill-opacity:1;stroke-width:3.57125;stroke-linecap:round;-inkscape-stroke:none;paint-order:stroke fill markers"
         inkscape:label="1"
         d="m 82.384567,4.8156242 c -0.602089,-0.00736 -1.202575,0.084432 -1.755965,0.287321 -1.106796,0.4057781 -1.949854,1.1554996 -2.59209,1.9745565 -1.28449,1.638112 -1.988669,3.6600073 -2.61121,5.9510583 -0.696357,2.562689 -0.665091,4.996493 -0.646472,6.794934 0.0077,0.741983 -4e-6,1.269229 -0.01964,1.705322 -0.667994,0.08948 -1.636975,0.167865 -2.71663,0.427881 -1.092131,0.26302 -2.381562,0.721409 -3.443201,1.837614 -1.06164,1.116205 -1.623911,2.836878 -1.517737,4.627108 0.01332,0.224606 0.0463,0.436238 0.07131,0.65319 l -0.989087,0.880049 c 0,0 -0.948702,0.78862 -1.476913,2.155941 -0.483481,1.251572 -0.3633,3.33527 0.84801,4.921147 l -0.02222,-0.0052 c 0,0 -0.512884,2.556823 1.256254,4.175456 1.168796,1.069365 2.691645,1.201497 3.590995,1.168404 0.312744,0.691847 0.676427,1.270472 0.989087,1.753898 1.091346,1.687462 2.318967,1.554861 3.240629,1.63866 0.921662,0.0838 1.832343,0.03882 2.702677,-0.03514 0.25226,-0.02144 0.23958,-0.0396 0.480591,-0.06615 l 0.507979,10.638627 0.02842,-0.0026 0.519348,16.048116 10e-4,0.03049 0.730188,26.240776 c -1.277876,1.26915 -2.168241,2.947817 -2.34921,4.817787 -0.231736,2.39417 0.79044,4.72601 2.472717,6.27559 0.062,0.0571 0.126248,0.11183 0.189652,0.16743 l 0.04754,1.70997 c -2.810517,2.16767 -5.232708,4.71214 -4.640544,6.74739 0.530399,1.82314 2.453337,3.02631 4.933549,3.7729 l 0.561723,20.19463 -0.24443,0.56173 -2.431893,7.03522 -24.46569,56.52885 c 0,0 13.056678,19.01816 24.950932,20.66851 l 0.565857,1.19734 1.981791,4.19458 3.91294,8.28218 c -0.08824,0.49519 -0.873677,1.95196 -6.34845,4.62401 -4.073847,1.98831 -6.598555,6.35478 -5.859074,8.43979 0.73948,2.085 5.56628,3.57198 10.358024,1.30793 4.791744,-2.26396 6.294119,-3.86271 8.031035,-5.32112 0.431711,-0.0275 0.183378,1.62283 0.790132,1.56373 1.784022,-0.17378 4.219073,-0.19617 4.616773,-0.59531 0.639834,-0.64215 0.96711,-5.39476 1.117761,-8.27133 l 2.181779,0.0915 c -0.671604,3.11804 -1.327625,8.12596 -1.112077,8.48269 0.275422,0.45583 2.572463,1.04088 3.270073,1.13378 0.6976,0.0929 1.5953,-1.04265 2.12287,-0.97875 0.52758,0.0639 4.83669,3.64706 6.59546,4.25555 1.75876,0.60869 9.88715,2.68467 12.25817,-1.21026 2.37102,-3.89472 -1.99375,-6.90165 -4.26589,-8.25324 -2.27215,-1.35158 -5.98593,-1.83047 -6.36034,-2.90577 l 12.04681,-19.42827 c 2.05784,0.86184 8.89174,3.14122 13.46792,-2.46341 5.43142,-6.65256 -1.9358,-15.43885 -1.9358,-15.43885 0,0 7.03896,-10.94943 1.31051,-19.34249 -3.75153,-5.16399 -12.45919,-15.72772 -12.45919,-15.72772 l -0.19792,-6.52519 -2.80706,-39.96655 c 5.15582,0.99979 11.99846,1.35885 14.44201,-1.77147 2.07842,-2.66255 1.02352,-5.8324 -3.50004,-9.98027 0.24782,-0.16397 0.48816,-0.33707 0.72037,-0.51986 1.81383,-1.42807 3.03547,-3.66397 3.03547,-6.08594 0,-2.42064 -1.18586,-4.64174 -2.94349,-6.146387 -1.75762,-1.50462 -4.00916,-2.47809 -6.6306,-3.224608 -2.25285,-0.641451 -4.80482,-1.107367 -7.59127,-1.446423 l -1.09291,-15.268824 c 0.98145,0.09711 1.99116,0.203081 3.03186,0.318326 l 1.24178,0.136943 0.27544,-2.484603 -1.2423,-0.136426 c -1.20195,-0.13313 -2.36193,-0.253396 -3.48764,-0.362768 l -0.37156,-5.191931 c 0,0 -3.33334,-28.617375 -3.8623,-28.617375 -0.52871,0 -3.69733,8.395973 -5.20123,8.866642 -1.09665,0.343232 -1.70458,-5.60896 -2.49959,-5.60896 -0.795,0 -7.698746,24.900806 -7.698746,24.900806 l -0.480074,1.6738 -0.8847,3.079398 c -0.720716,0.01241 -1.436738,0.02787 -2.146639,0.04754 l -1.250053,0.03514 0.07028,2.500106 1.250053,-0.03514 c 0.449699,-0.01246 0.900774,-0.02394 1.353922,-0.03359 l -4.490165,15.626953 c -0.677042,0.06166 -1.333948,0.135225 -1.976624,0.217557 l -1.229382,-20.71243 0.04909,-0.0052 -0.19017,-2.371948 -0.155546,-2.619995 -0.05426,0.0057 -1.083655,-13.518555 0.0093,-0.001 -0.134875,-2.415873 c 0,0 -0.50798,-9.451268 -0.50798,-10.943518 0,0.09679 0.360191,-1.13006 1.607654,-2.999817 0.489214,-0.733287 1.100028,-1.582228 1.634526,-2.347661 0.53448,-0.765416 0.930399,-1.131073 1.344104,-2.232422 l 0.15968,-0.425813 v -0.453217 c 0,-1.71221 -0.576459,-3.632552 -2.009697,-5.159891 -1.39525,-1.486894 -3.527532,-2.465597 -6.181018,-2.711463 0.0068,-1.173305 0.09862,-5.537872 1.058334,-9.554455 0.529657,-2.216789 1.414559,-3.716061 2.087727,-5.263762 0.33659,-0.773841 0.79412,-1.6488903 0.511597,-3.0525263 C 86.57052,6.5430645 85.230074,5.5052255 84.149834,5.1261996 83.590198,4.9298421 82.986655,4.8229833 82.384567,4.8156242 Z m -0.02532,2.4882205 c 0.305105,0.0042 0.625945,0.06337 0.963765,0.181901 2.702514,0.948239 -0.267099,3.0297273 -1.501717,8.1969153 -1.031339,4.316418 -1.122495,8.810642 -1.126546,10.104293 -1.586015,0.124165 -2.971612,0.534249 -4.128947,1.25367 -1.684165,1.04691 -2.91473,3.217447 -2.351278,5.284949 0.04411,0.161844 0.113036,0.311977 0.192236,0.457336 0.170247,0.533038 0.46357,0.80071 0.74104,0.993738 -1.31203,1.121362 -5.264251,-0.352265 -5.569685,-5.502506 -0.30545,-5.150241 6.031769,-3.618324 7.224365,-4.798157 1.054536,-1.043248 -0.129278,-5.503401 1.036112,-9.792167 1.019714,-3.7526683 2.384839,-6.4096143 4.520655,-6.3799723 z M 81.620273,28.247269 c 0.372014,-0.0058 0.762757,0.0064 1.171504,0.03772 4.572643,0.350285 6.093685,3.060708 6.093685,5.403288 -0.237801,0.633058 -1.663351,2.492865 -2.71663,4.071586 -1.313381,1.968559 -2.0283,3.343689 -2.0283,4.387846 0,1.932679 0.51108,11.082527 0.51108,11.082527 l -3.996655,0.351917 -0.51263,-10.761101 c 0,0 -5.931203,1.126508 -6.694165,-0.05323 -0.762976,-1.179718 -1.738009,-2.963291 -0.819589,-3.634404 0.918421,-0.671096 4.961455,-4.156852 4.961455,-4.156852 l 3.804419,-0.277502 c -0.02009,-0.824656 0.215981,-1.575897 0.781347,-2.232422 -0.674874,-0.228064 -1.187008,-0.203402 -1.952335,0.114721 -1.58589,0.659235 -3.202572,0.535719 -3.597714,-0.914156 -0.452687,-1.661071 1.398278,-3.363876 4.994528,-3.419946 z m -13.797608,3.577043 0.0155,0.01757 c 0.620582,1.530408 1.563205,2.742059 2.669088,3.552238 0.598175,0.438217 1.186224,0.695928 1.776636,0.786515 -0.04877,0.04007 -0.08534,0.07055 -0.14056,0.116272 -3.41e-4,2.82e-4 -7.95e-4,2.34e-4 -10e-4,5.17e-4 -0.776201,0.596776 -2.611704,1.356633 -4.452441,-0.563273 -1.96419,-2.048671 0.132808,-3.909839 0.132808,-3.909839 z m 16.961239,23.903967 1.087272,13.569198 -4.623491,0.503845 -0.444417,-13.72216 z m 21.923206,18.002002 c 3.76262,0.01349 5.96713,0.389409 8.70438,0.641304 l 0.19068,2.665988 c -6.15474,-0.530071 -11.21024,-0.704068 -15.867758,-0.691431 l 0.679018,-2.36368 c 2.55098,-0.189271 4.58326,-0.258313 6.29368,-0.252181 z m -6.05751,5.114416 c 4.43897,0.01113 9.27368,0.202642 15.13292,0.718303 l 0.33021,4.615222 c -0.28537,-0.381585 -0.61752,-0.751424 -1.02526,-1.096574 -0.68178,-0.577302 -1.70407,-1.11374 -2.88302,-1.09554 -0.0786,0.0012 -0.1583,0.0051 -0.23823,0.01137 -1.29837,0.102176 -2.42069,0.974216 -2.97656,1.810742 -0.55611,0.836526 -0.78202,1.661137 -0.92966,2.456697 -0.29528,1.591145 -0.22874,3.091522 -0.0212,4.293278 0.14666,0.849007 0.36792,2.287176 1.10329,3.781682 -0.64454,-0.02224 -1.28974,-0.04424 -1.94717,-0.06098 -0.96323,-0.02452 -1.91252,-0.04524 -2.84685,-0.06149 0.77874,-1.038305 1.29072,-2.150017 1.7725,-3.208072 0.76142,-1.672251 1.19345,-3.366161 0.94723,-5.125269 -0.12311,-0.879554 -0.45047,-1.82567 -1.16789,-2.613277 -0.71741,-0.787607 -1.81794,-1.285421 -2.87114,-1.370976 -0.12751,-0.01036 -0.25334,-0.01566 -0.37776,-0.01654 -1.86598,-0.01314 -3.379716,1.006457 -4.407473,2.032434 -0.372031,0.371387 -0.706903,0.758957 -1.013375,1.148767 l 1.785421,-6.215125 c 0.539797,-0.0039 1.083327,-0.006 1.634007,-0.0047 z m 1.98024,5.538164 c 0.0651,4.58e-4 0.13081,0.0034 0.19688,0.0088 2.11435,0.17173 2.25353,2.871596 1.01958,5.581571 l -7.21299,0.850077 c 0.0012,-0.0027 0.0024,-0.0055 0.0036,-0.0083 l 0.190169,-0.406693 c 0.330971,-0.683245 0.698282,-1.319466 1.004073,-1.802991 1.224045,-1.935424 2.780348,-4.236703 4.798668,-4.222481 z m 9.6206,0.103869 c 1.81495,-0.03196 3.1786,3.393723 3.59048,5.076176 l -5.36918,0.383956 c -0.25987,-1.790904 -0.11764,-5.313605 1.69137,-5.455998 0.0293,-0.0023 0.0583,-0.0036 0.0873,-0.0041 z m 4.14393,7.271391 c 0.31167,1.018357 0.39499,2.006622 0.51315,2.9993 l -5.30097,-0.37052 c 1.07324,0.02939 2.55897,-0.672597 2.38073,-2.350761 1.38337,-0.159694 2.40709,-0.278019 2.40709,-0.278019 z m -17.167937,1.041797 c 0,0 0.09763,1.289563 2.209677,1.396814 -2.388768,0 -3.624428,0.03372 -6.140703,0.144694 l 0.344165,-1.18029 z m 2.382277,3.888135 c 1.77426,0.0078 3.61984,0.04096 5.52266,0.0894 15.22233,0.38749 26.93169,2.28387 26.93169,9.107447 0,6.82349 -11.72692,8.02919 -27.59573,7.26106 -15.868945,-0.76813 -27.416297,-2.77637 -26.768387,-9.47023 0.566894,-5.856867 9.490285,-7.042474 21.909767,-6.987677 z m 5.69578,21.528397 c 0,0 6.86452,4.1094 12.00133,5.45031 0.005,0.001 0.0102,0.002 0.015,0.004 l 2.73782,38.9816 -23.535513,10.70116 -0.0031,-0.006 -15.230595,-30.55524 8.623247,-19.81688 c 0.02036,-0.002 0.04175,-0.004 0.06201,-0.006 5.743,-0.57997 15.329811,-4.7532 15.329811,-4.7532 z m -25.320415,27.56059 15.376839,30.85135 24.892016,-11.31921 0.1726,7.00526 -18.25935,13.50615 6.52156,-10.51874 -13.326826,1.32654 -7.346839,-11.83442 -4.914428,10.68358 -4.435388,-25.41653 z m 4.384745,36.97604 6.933944,0.39429 4.468977,7.40316 -8.89403,6.57893 z m 38.42401,18.92339 c 4.73805,0.30135 9.063,4.75223 10.35647,7.26829 -1.52865,2.64495 -4.5227,5.58929 -6.47402,7.31428 l -8.97155,-6.19652 c 1.57068,-2.4832 3.10238,-5.2601 4.61212,-8.37882 0.16226,-0.004 0.32118,-0.007 0.47698,-0.007 z m 4.8953,6.57738 c -1.18515,0 -2.14612,0.96045 -2.14612,2.1456 0,1.18515 0.96097,2.14612 2.14612,2.14612 1.18515,0 2.14561,-0.96097 2.14561,-2.14612 0,-1.18515 -0.96046,-2.1456 -2.14561,-2.1456 z m -11.36209,3.89692 0.0362,0.0243 h -0.0532 c 0.006,-0.008 0.0113,-0.016 0.0171,-0.0243 z m -0.15245,0.21394 v 0.82992 15.31896 0.63097 l -2.79156,4.50205 v -17.6444 c 0.94793,-1.11986 1.87773,-2.32878 2.79156,-3.6375 z m 2.50011,1.3689 2.8577,1.9265 h -0.0661 v 0.31161 4.66948 c -0.67578,1.07412 -1.35992,2.16822 -2.0252,3.21686 l 0.009,0.004 -0.77514,1.25005 z m -7.79178,4.96611 v 17.43925 1.53944 l -1.79627,2.89698 -0.99529,-0.0419 v -0.38757 -18.78335 -0.22118 c 0.95008,-0.74528 1.88216,-1.54973 2.79156,-2.44171 z m -5.29166,4.20594 v 17.2403 0.28318 l -2.79156,-0.11679 v -0.16639 -15.68794 c 0.95217,-0.46242 1.88245,-0.97799 2.79156,-1.55236 z m -5.29167,2.61793 v 14.62237 0.0615 l -2.791554,-0.11679 v -13.68185 c 0.951254,-0.25485 1.883144,-0.54557 2.791554,-0.88522 z m -5.29166,1.45211 v 13.01058 l -2.791561,-0.11679 v -12.49071 c 0.949157,-0.1056 1.883589,-0.23312 2.791561,-0.40308 z m -13.374894,0.44545 c 0.947012,0.076 1.880164,0.13842 2.791561,0.17725 v 10.24072 l -2.791561,-5.9092 v -0.60255 z m 8.083228,0.16898 v 12.17445 l -2.791561,-0.11678 v -11.9941 c 0.948274,0.001 1.882373,-0.0151 2.791561,-0.0636 z"
         sodipodi:nodetypes="sscsccssscccccsccsscccccccsccccccccccccssccssccsssccsccccccccsccsscccccccccscsccccccccccccccccccccsccscccccssscscsscccssssccssccccccccccssccscscscccccccsccccsccccsccsccsccssscsccccsccccccsscccsccccccccccccccssscccccccccccccccccccccccccccccccccccssssscccccccccccccccccccccccccccccccccccccccccccsccccccccccccccccsc" /><path
         id="path10039-3"
         style="color:#000000;display:inline;opacity:0.99;fill:#202020;fill-opacity:1;stroke-width:3.57125;stroke-linecap:round;-inkscape-stroke:none;paint-order:stroke fill markers"
         inkscape:label="0"
         d="m 23.929745,43.454297 c -0.52871,0 -3.697337,8.395974 -5.201237,8.866642 -1.09664,0.343232 -1.70458,-5.60896 -2.49959,-5.60896 -0.79499,0 -7.6987477,24.900806 -7.6987477,24.900806 l -0.480074,1.6738 -0.8847,3.079398 c -0.720715,0.01241 -1.436739,0.02787 -2.146639,0.04754 l -1.2500527,0.03514 0.07028,2.500105 1.2500527,-0.03514 c 0.449698,-0.01246 0.900775,-0.02394 1.353922,-0.03359 L 1.9527946,94.506991 c 0,0 -13.8151806,5.9e-5 -14.7034936,8.921939 -0.231736,2.39417 0.790442,4.72601 2.472716,6.27559 0.062,0.0571 0.8474942,0.72379 1.4484912,0.93947 l -1.2112962,0.93793 c -2.810513,2.16767 -5.232706,4.71215 -4.640543,6.74739 0.530399,1.82314 2.45334,3.02631 4.9335483,3.7729 l 9.10228663,0.86713 c -4.36979993,9.81972 -7.85607573,17.20196 -11.21688493,26.92445 0,0 -7.119149,1.74526 -9.066631,9.38134 -1.94748,7.63609 -4.257535,16.0207 -4.613671,22.22655 l -10.785388,24.92096 c 0,0 2.556255,3.71782 6.430615,8.00727 -0.291018,1.63366 -0.557896,3.10264 -0.669727,3.59616 0.02139,-0.0944 -0.601048,1.02254 -2.230871,2.57039 -0.639176,0.60703 -1.422608,1.30017 -2.11305,1.92856 -0.690416,0.62836 -1.157158,0.89729 -1.804025,1.87999 l -0.250114,0.38034 -0.09974,0.44183 c -0.378392,1.66988 -0.240677,3.67035 0.819589,5.47667 1.032152,1.75848 2.895077,3.18389 5.428609,4.01009 -0.266121,1.14274 -1.31983,5.37955 -3.143477,9.08472 -1.006465,2.04493 -2.200727,3.3114 -3.199289,4.67206 -0.499282,0.68032 -1.138916,1.43254 -1.173571,2.86391 -0.03468,1.43136 1.043029,2.73973 2.012797,3.34812 0.502268,0.31509 1.067206,0.55274 1.652612,0.69298 h 5.17e-4 c 0.585503,0.13979 1.191215,0.18306 1.775602,0.10749 1.169096,-0.15114 2.157311,-0.69602 2.964677,-1.35289 1.614745,-1.31375 2.748319,-3.12974 3.861779,-5.22656 1.245484,-2.34543 1.752881,-4.72627 2.132171,-6.48436 0.156468,-0.72534 0.280314,-1.23783 0.395841,-1.65881 0.671256,0.0603 1.633597,0.19845 2.744018,0.18345 1.123255,-0.0152 2.482047,-0.17747 3.764112,-1.03146 1.282067,-0.85399 2.210604,-2.40758 2.50269,-4.17701 0.03665,-0.222 0.05138,-0.43608 0.07493,-0.65319 l 1.159103,-0.63975 c 0,0 1.099358,-0.55934 1.916679,-1.77612 0.748118,-1.11378 1.091333,-3.17242 0.260448,-4.98678 l 0.02067,0.01 0.283186,0.59893 1.9817922,4.19458 3.9129388,8.28218 c -0.08824,0.49519 -0.873682,1.95196 -6.348449,4.62401 -4.073844,1.98831 -6.598554,6.35478 -5.859074,8.43979 0.739479,2.085 5.566285,3.57198 10.3580232,1.30793 4.7917397,-2.26395 6.29412043,-3.86271 8.0310344,-5.32112 0.43171,-0.0275 0.183379,1.62283 0.790132,1.56373 1.784021,-0.17378 4.2190727,-0.19617 4.6167727,-0.59531 0.639833,-0.64215 0.96711,-5.39477 1.117761,-8.27133 l 2.181779,0.0915 c -0.671603,3.11803 -1.327624,8.12595 -1.112077,8.48268 0.275422,0.45583 2.5724777,1.04088 3.2700877,1.13378 0.6976,0.0929 1.5953,-1.04265 2.12287,-0.97875 0.52757,0.0639 4.836687,3.64707 6.595454,4.25555 1.75876,0.60869 9.887147,2.68467 12.258154,-1.21026 2.37103,-3.89492 -1.993747,-6.90186 -4.265877,-8.25345 -2.27215,-1.35158 -5.985917,-1.83047 -6.360327,-2.90577 l 12.046804,-19.42827 c 2.057827,0.86184 8.891734,3.14121 13.467901,-2.46341 5.431407,-6.65256 -1.935797,-15.43885 -1.935797,-15.43885 0,0 7.038954,-10.94944 1.310507,-19.34249 -3.751517,-5.16399 -12.459181,-15.72772 -12.459181,-15.72772 l -0.19792,-6.52519 -2.80706,-39.96655 c 5.155817,0.99979 11.998454,1.35885 14.442004,-1.77147 2.078407,-2.66255 1.023507,-5.8324 -3.50004,-9.98027 0.24782,-0.16397 0.48816,-0.33707 0.72037,-0.51986 1.81383,-1.42807 3.03547,-3.66397 3.03547,-6.08594 0,-2.42063 -1.18586,-4.64174 -2.94349,-6.146391 -1.75763,-1.504619 -4.009167,-2.478093 -6.630597,-3.22461 -2.252847,-0.64145 -4.804827,-1.107367 -7.591264,-1.446423 l -1.09296,-15.268835 c 0.98144,0.09711 1.99116,0.203082 3.031857,0.318327 l 1.24178,0.136942 0.27544,-2.484603 -1.2423,-0.136426 c -1.201947,-0.133129 -2.361927,-0.253396 -3.487637,-0.362768 l -0.37156,-5.191931 c 0,0 -3.333327,-28.617375 -3.862287,-28.617375 z m -7.184057,30.269987 c 3.76261,0.01349 5.967117,0.38941 8.704377,0.641305 l 0.19068,2.665987 C 19.486008,76.501505 14.430511,76.327508 9.7729893,76.340145 l 0.6790317,-2.36368 c 2.55097,-0.189271 4.58325,-0.258313 6.293667,-0.252181 z m -6.057507,5.114417 c 4.43896,0.01113 9.273677,0.202641 15.132914,0.718302 l 0.330217,4.615222 c -0.285367,-0.381585 -0.617517,-0.751424 -1.025257,-1.096574 -0.68178,-0.577301 -1.70408,-1.11374 -2.88303,-1.09554 -0.0786,0.0012 -0.1583,0.0051 -0.23823,0.01137 -1.29837,0.102176 -2.420687,0.974217 -2.976557,1.810742 -0.55611,0.836525 -0.78202,1.661138 -0.92966,2.456697 -0.29528,1.591144 -0.22873,3.091524 -0.0212,4.293278 0.14666,0.849007 0.36792,2.287177 1.10329,3.781682 -0.64454,-0.02224 -1.28974,-0.04424 -1.94717,-0.06098 -0.96322,-0.02452 -1.912517,-0.04525 -2.846847,-0.0615 0.77874,-1.038304 1.290717,-2.150019 1.772497,-3.208073 0.76142,-1.67225 1.19345,-3.366163 0.94723,-5.125269 -0.12311,-0.879553 -0.45047,-1.825671 -1.16789,-2.613277 -0.717407,-0.787606 -1.817937,-1.285421 -2.871137,-1.370976 -0.12751,-0.01036 -0.25333,-0.01566 -0.37775,-0.01654 -1.86598,-0.01314 -3.3797307,1.006458 -4.4074867,2.032434 -0.372031,0.371386 -0.706904,0.758957 -1.013375,1.148767 l 1.78542,-6.215125 c 0.539797,-0.0039 1.0833317,-0.0059 1.6340117,-0.0046 z m 1.98024,5.538163 c 0.0651,4.58e-4 0.13082,0.0034 0.19689,0.0088 2.11434,0.17173 2.25352,2.871599 1.01957,5.581571 l -7.2129947,0.850078 c 0.0012,-0.0027 0.0024,-0.0055 0.0036,-0.0083 l 0.19017,-0.406693 c 0.33097,-0.683245 0.698282,-1.319466 1.004073,-1.802991 1.224043,-1.935422 2.7803517,-4.236703 4.7986717,-4.222481 z m 9.620594,0.103869 c 1.81495,-0.03196 3.1786,3.393725 3.59048,5.076176 l -5.369177,0.383956 c -0.25987,-1.790902 -0.11764,-5.313605 1.691367,-5.455997 0.0293,-0.0023 0.0583,-0.0036 0.0873,-0.0041 z m 4.143927,7.271391 c 0.31167,1.018356 0.39499,2.006623 0.51315,2.9993 l -5.300967,-0.37052 c 1.07324,0.02939 2.55898,-0.672598 2.38073,-2.350761 1.38337,-0.159693 2.407077,-0.278019 2.407087,-0.278019 z M 9.2650093,92.793921 c 0,0 0.09763,1.289563 2.2096817,1.396814 -2.3887687,0 -3.6244347,0.03372 -6.1407077,0.144694 l 0.344165,-1.18029 z m 2.3822817,3.888135 c 1.77426,0.0078 3.61984,0.04096 5.522657,0.0894 15.222311,0.387486 26.931675,2.283883 26.931675,9.107454 0,6.82348 -11.726924,8.02919 -27.595715,7.26106 -15.86893137,-0.76813 -27.416297,-2.77637 -26.768388,-9.47023 0.5668943,-5.856866 9.49029793,-7.042481 21.909771,-6.987684 z m 5.695777,21.527884 v 5.2e-4 c 0,0 6.864527,4.1094 12.001324,5.45031 0.005,0.001 0.0102,0.002 0.015,0.004 l 2.737817,38.9816 -23.5355057,10.70116 -0.0031,-0.006 -15.2305931,-30.55524 8.6232454,-19.81688 c 0.02036,-0.002 0.04175,-0.004 0.06201,-0.006 5.7429937,-0.57997 15.3298124,-4.7532 15.3298124,-4.7532 z m -25.3204158,27.56111 15.3768381,30.85135 24.8920087,-11.31921 0.1726,7.00526 L 14.204761,185.8146 20.726315,175.29586 7.3994903,176.6224 0.05265263,164.78798 -4.861776,175.47156 -9.2971638,150.05503 Z m 4.3847447,36.97604 6.9339437,0.39429 4.4689777,7.40316 -8.8940304,6.57893 z m 38.4240021,18.92339 c 4.738037,0.30135 9.062994,4.75223 10.356464,7.26829 -1.52865,2.64495 -4.522697,5.58929 -6.474017,7.31428 l -8.971544,-6.19652 c 1.570677,-2.4832 3.102377,-5.2601 4.612117,-8.37882 0.16226,-0.004 0.32118,-0.007 0.47698,-0.007 z m 4.895307,6.57738 c -1.18515,0 -2.14613,0.96045 -2.14613,2.1456 0,1.18515 0.96098,2.14612 2.14613,2.14612 1.18514,0 2.145597,-0.96097 2.145597,-2.14612 0,-1.18515 -0.960457,-2.1456 -2.145597,-2.1456 z m -11.362094,3.89692 0.0362,0.0243 h -0.0532 c 0.006,-0.008 0.0113,-0.016 0.0171,-0.0243 z m -0.15245,0.21394 v 0.82992 15.31896 0.63097 l -2.791557,4.50205 v -17.6444 c 0.947927,-1.11986 1.877727,-2.32879 2.791557,-3.6375 z m 2.50011,1.3689 2.857697,1.9265 h -0.0661 v 0.31161 4.66948 c -0.67578,1.07412 -1.35992,2.16822 -2.0252,3.21686 l 0.009,0.004 -0.775147,1.25005 z m -58.472391,2.96727 c 2.790873,2.85416 6.037286,5.71579 9.428365,7.73234 -1.681226,0.8323 -4.994527,2.59261 -4.994527,2.59261 l -3.771346,-0.56999 c -0.162644,0.8087 -0.559255,1.48917 -1.255737,2.00452 0.607792,0.37157 1.112888,0.46048 1.929597,0.31936 1.692368,-0.29245 3.241819,0.18537 3.306776,1.68672 0.0744,1.72004 -2.107328,2.97198 -5.627047,2.23191 -0.364148,-0.0764 -0.742143,-0.17434 -1.133781,-0.29559 -4.382163,-1.35216 -5.266766,-4.33199 -4.749064,-6.61665 0.371823,-0.56486 2.173008,-2.06342 3.549137,-3.37034 1.715947,-1.62963 2.717386,-2.81294 2.948141,-3.83129 0.08465,-0.37359 0.219081,-1.07417 0.369486,-1.8836 z m 50.680624,1.99884 v 17.43925 1.53944 l -1.79628,2.89698 -0.995287,-0.0419 v -0.38757 -18.78335 -0.22118 c 0.950077,-0.74528 1.882167,-1.54973 2.791567,-2.44171 z m -5.291667,4.20594 v 17.2403 0.28318 l -2.791557,-0.11679 v -0.16639 -15.68794 c 0.952167,-0.46241 1.882447,-0.97799 2.791557,-1.55236 z m -5.291667,2.61793 v 14.62237 0.0615 l -2.7915587,-0.11679 v -13.68185 c 0.9512587,-0.25485 1.8831487,-0.54557 2.7915587,-0.88522 z m -28.694886,1.1219 c 0.911152,0.002 1.997775,0.40482 2.854607,1.82934 1.462875,2.43209 -0.993738,3.78375 -0.993738,3.78375 l -0.01137,-0.0202 c -0.267022,-1.62972 -0.918487,-3.01999 -1.817977,-4.05453 -0.486539,-0.55958 -1.003285,-0.94079 -1.559077,-1.15962 0.05643,-0.0283 0.09881,-0.0498 0.16278,-0.0822 3.95e-4,-2e-4 0.0013,-2.8e-4 0.0016,-5.2e-4 0.333334,-0.15393 0.816533,-0.29721 1.363223,-0.2961 z m 23.4032223,0.33021 v 13.01058 L 4.2539466,239.8635 v -12.49071 c 0.9491557,-0.1056 1.8835887,-0.23312 2.7915607,-0.40308 z m -13.3748941,0.44545 c 0.9470108,0.076 1.8801648,0.13842 2.7915607,0.17725 v 10.24072 l -2.7915607,-5.9092 v -0.60255 z m 8.0832274,0.16898 v 12.17445 l -2.7915607,-0.11678 v -11.9941 c 0.94827273,0.001 1.88237373,-0.0151 2.7915607,-0.0636 z m -22.3092316,0.98961 c 1.687194,-0.0265 4.297318,2.2995 3.562057,6.75359 -0.840286,5.0904 -6.682635,2.19591 -8.106482,3.08302 -1.259014,0.7844 -1.090111,5.39571 -3.174483,9.32087 -1.823829,3.43453 -3.742311,5.72439 -5.818767,5.22346 -0.296671,-0.0713 -0.596408,-0.20045 -0.899686,-0.39068 -2.426141,-1.52203 0.930274,-2.89549 3.276284,-7.66206 1.959752,-3.98178 3.04174,-8.34485 3.331581,-9.60562 1.574234,0.22941 3.015907,0.13581 4.303613,-0.31005 1.873887,-0.64884 3.553899,-2.49397 3.461287,-4.63486 -0.0073,-0.1676 -0.04118,-0.32908 -0.0863,-0.48835 -0.04824,-0.55748 -0.275378,-0.88369 -0.503328,-1.13326 0.190925,-0.10046 0.413196,-0.15227 0.654224,-0.15606 z" /></g><g
       id="g1110"
       transform="matrix(0.28001392,0,0,0.28001392,-36.619722,-7.9521856)"
       inkscape:label="Fonts"
       style="stroke-width:3.57125"><path
         id="rect2386-7-2"
         style="opacity:0.99;fill:#202020;fill-opacity:1;stroke:none;stroke-width:4.72448;stroke-linecap:round;paint-order:stroke fill markers;stop-color:#000000"
         d="m 97.353866,262.91578 v 6.31514 a 0.25369459,0.25369459 0 0 0 0.253688,0.25368 h 3.704846 a 0.25369459,0.25369459 0 0 1 0.25369,0.25369 v 41.70948 a 0.25369459,0.25369459 0 0 0 0.25369,0.25369 h 7.02566 a 0.25369459,0.25369459 0 0 0 0.25368,-0.25369 V 269.7384 a 0.25369459,0.25369459 0 0 1 0.2537,-0.2537 h 4.04376 a 0.25369459,0.25369459 0 0 0 0.2537,-0.25369 v -6.31513 c 0,-0.14011 -0.11359,-0.25375 -0.2537,-0.25383 -5.26365,-0.003 -10.5255,-5e-5 -15.789026,5e-5 -0.140107,0 -0.253688,0.11358 -0.253688,0.25368 z m 17.458524,0.002 v 6.31513 a 0.25369459,0.25369459 0 0 0 0.2537,0.25368 h 3.70485 a 0.25369459,0.25369459 0 0 1 0.25369,0.25369 v 41.70948 a 0.25369459,0.25369459 0 0 0 0.25369,0.25368 h 7.02566 a 0.25369459,0.25369459 0 0 0 0.25369,-0.25368 v -41.70952 a 0.25369459,0.25369459 0 0 1 0.25368,-0.2537 h 4.04378 a 0.25369459,0.25369459 0 0 0 0.25368,-0.25369 v -6.31512 a 0.25369459,0.25369459 0 0 0 -0.25368,-0.25369 h -15.78904 a 0.25369459,0.25369459 0 0 0 -0.2537,0.25369 z m -50.873185,-0.002 c 0,16.17717 0,32.35432 0,48.53149 v 0.25561 h 12.912662 c 0.140107,0 0.253698,-0.11359 0.253698,-0.25369 v -6.58369 c 0,-0.1401 -0.113591,-0.25368 -0.253698,-0.25368 h -5.070424 c -0.140117,0 -0.253698,-0.1136 -0.253698,-0.2537 v -41.44234 c 0,-0.1401 -0.113582,-0.25368 -0.253688,-0.25368 h -7.081164 c -0.140106,0 -0.253688,0.11358 -0.253688,0.25368 z m -44.795084,6.56996 v 41.963 a 0.25369459,0.25369459 0 0 0 0.253688,0.25369 h 7.08165 a 0.25369459,0.25369459 0 0 0 0.253688,-0.25369 v -12.30073 a 0.25369459,0.25369459 0 0 1 0.253698,-0.25369 h 2.676685 a 0.25369459,0.25369459 0 0 1 0.253687,0.25369 v 12.30073 a 0.25369459,0.25369459 0 0 0 0.253688,0.25369 h 7.081154 c 0.140106,0 0.253698,-0.11358 0.253698,-0.25369 3.1e-5,-11.54546 0.0031,-30.93896 0.0031,-41.963 -6.2e-5,-4.59367 -3.730649,-8.31758 -8.329505,-8.31758 h -1.717094 a 8.3175974,8.3175974 0 0 0 -8.317594,8.31758 z m 9.027294,-1.6e-4 h 0.307534 a 1.4382649,1.4382649 0 0 1 1.438268,1.43827 v 20.43644 a 0.25369459,0.25369459 0 0 1 -0.253687,0.2537 h -2.676685 a 0.25369459,0.25369459 0 0 1 -0.253698,-0.2537 v -20.43644 a 1.4382649,1.4382649 0 0 1 1.438268,-1.43827 z m -66.505352,-6.82694 v 49.03887 c 5.439184,0.006 11.029299,0.003 15.696356,0.003 1.593608,0 2.876868,-1.28326 2.876868,-2.87686 v -17.47372 c 0,-1.59361 -1.28326,-2.87637 -2.876868,-2.87637 h 0.958794 c 1.062398,0 1.918074,-0.85568 1.918074,-1.91807 0,-7.00666 0,-14.01333 0,-21.01999 0,-1.55177 -1.216756,-2.80846 -2.751995,-2.87339 -5.424364,-0.003 -11.002133,-0.004 -15.821229,-0.004 z m 7.588539,6.82448 h 3.395648 v 15.85097 h -3.395648 z m 0,22.12842 h 3.395648 v 13.02613 h -3.395648 z m 108.80925,-22.12475 v 0 c 0,11.71813 0,23.43627 0,35.1544 0,4.50718 3.653796,8.16098 8.16098,8.16098 h 2.039686 c 4.507174,0 8.16097,-3.6538 8.16097,-8.16098 v -9.1626 c 0,-0.14011 -0.113581,-0.2537 -0.253688,-0.2537 h -7.08165 c -0.140106,0 -0.253698,0.11359 -0.253698,0.2537 v 9.1626 c 0,0.60676 -0.491883,1.09866 -1.098652,1.09866 h -0.986757 c -0.606768,0 -1.098651,-0.4919 -1.098651,-1.09866 v -13.87082 c 0,-0.1401 0.113581,-0.25369 0.253687,-0.25369 H 96.1718 c 0.140107,0 0.253688,-0.11358 0.253688,-0.25368 0,-6.92535 0,-13.8507 0,-20.77604 0,-4.59367 -3.723911,-8.31759 -8.317593,-8.31759 h -1.726626 c -4.593578,0 -8.317417,3.72384 -8.317417,8.31742 z m 9.026808,0 h 0.307524 c 0.794336,0 1.438268,0.64393 1.438268,1.43827 v 12.11904 c 0,0.1401 -0.113582,0.25368 -0.253688,0.25368 h -2.676685 c -0.140106,0 -0.253687,-0.11358 -0.253687,-0.25368 v -12.11904 c 0,-0.79434 0.643932,-1.43827 1.438268,-1.43827 z M 6.9430744,262.6609 c -1.5885269,9e-5 -2.8762672,1.28783 -2.8763603,2.87636 v -0.95681 c -7.25e-5,-1.05921 -0.8588626,-1.91779 -1.9180738,-1.91757 h -5.4172747 c -0.1401063,0 -0.2536879,0.11358 -0.2536879,0.25369 v 48.53148 c 0,0.1401 0.1135816,0.25368 0.2536879,0.25368 h 7.0816503 c 0.1401063,0 0.2536982,-0.11358 0.2536982,-0.25368 0,-13.98558 0,-27.97115 0,-41.95673 h 2.0964407 c 0.7944601,-9e-5 1.4385165,0.64396 1.4384337,1.43842 v 40.51632 c 0,0.14012 0.1135815,0.2537 0.2536878,0.2537 h 7.0816507 c 0.140116,0 0.253698,-0.11358 0.253698,-0.2537 v -45.9088 c -9.3e-5,-1.58853 -1.287834,-2.87627 -2.876371,-2.87636 z m -22.1344164,7.2e-4 h 7.5887884 v 49.039 h -7.5887884 z m 147.809372,0.003 h 7.0814 a 0.25369459,0.25369459 0 0 1 0.25369,0.25369 v 48.53162 a 0.25369459,0.25369459 0 0 1 -0.25369,0.2537 h -7.0814 a 0.25369459,0.25369459 0 0 1 -0.25368,-0.2537 v -48.53162 a 0.25369459,0.25369459 0 0 1 0.25368,-0.25369 z M 60.174943,311.4495 v -19.84321 c 0,-0.14011 9.62e-4,-0.36753 -0.01097,-0.50707 -0.120298,-1.39054 -1.221931,-2.4918 -2.61252,-2.61208 -0.139568,-0.0121 -0.139848,-0.011 2.58e-4,-0.011 h 0.451408 c 0.140106,0 0.367849,0.002 0.506672,-0.0164 0.859277,-0.11233 1.536357,-0.7894 1.648686,-1.64865 0.01811,-0.13885 0.01635,-0.3666 0.01635,-0.50671 v -12.6228 -7.88981 c 0,-0.1401 9.62e-4,-0.36752 -0.01097,-0.50707 -0.116697,-1.34886 -1.156814,-2.42526 -2.488341,-2.59831 -0.138927,-0.018 -0.252736,-0.023 -0.252736,-0.0245 h -0.12487 c -5.130584,-0.004 -13.84904,-9.6e-4 -15.442669,-6e-4 -0.140106,5e-5 -0.253688,0.11369 -0.253688,0.25379 v 48.53149 a 0.25369459,0.25369459 0 0 0 0.253688,0.25369 h 7.081164 a 0.25369459,0.25369459 0 0 0 0.253688,-0.25369 v -19.57859 a 0.25369459,0.25369459 0 0 1 0.253698,-0.25369 h 2.888262 a 0.25369459,0.25369459 0 0 1 0.253688,0.25369 v 19.57859 a 0.25379174,0.25379174 0 0 0 0.253688,0.25379 l 7.08165,0.003 a 0.25359749,0.25359749 0 0 0 0.253698,-0.25361 z M 49.443957,269.4859 h 2.888262 a 0.25369459,0.25369459 0 0 1 0.253698,0.25369 v 15.34357 a 0.25369459,0.25369459 0 0 1 -0.253698,0.2537 h -2.888262 a 0.25369459,0.25369459 0 0 1 -0.253688,-0.2537 v -15.34357 a 0.25369459,0.25369459 0 0 1 0.253688,-0.25369 z"
         inkscape:label="Binarletti" /><path
         id="path368"
         style="font-weight:bold;font-size:26.2033px;font-family:'Gala Condensed';-inkscape-font-specification:'Gala Condensed,  Bold';opacity:0.99;fill:#202020;stroke-width:4.72448;stroke-linecap:round;paint-order:stroke fill markers;stop-color:#000000"
         d="m 139.95322,332.59088 q 0,1.38877 -0.7861,2.33209 -0.75989,0.91712 -2.3845,0.91712 h -3.1706 v -18.89258 h 3.1444 q 1.70321,0 2.4369,0.96952 0.7599,0.96952 0.7599,2.4107 v 4.19253 q 0,1.04813 -0.26203,1.67701 -0.26204,0.60268 -0.62888,0.96953 0.36684,0.36684 0.62888,0.96952 0.26203,0.60267 0.26203,1.28396 z m -2.22728,-11.97491 q 0,-0.62888 -0.31444,-1.02193 -0.28824,-0.41925 -1.15295,-0.41925 h -0.41925 v 7.04869 h 0.52407 q 0.52406,0 0.94332,-0.36685 0.41925,-0.39305 0.41925,-1.20535 z m 0,9.06634 q 0,-0.70749 -0.39305,-0.91711 -0.39305,-0.23583 -0.96952,-0.23583 h -0.52407 v 5.08344 h 0.60268 q 0.65508,0 0.96952,-0.34065 0.31444,-0.34064 0.31444,-0.91711 z m -10.00966,6.15778 v -0.62888 q -0.39305,0.47166 -0.86471,0.75989 -0.44545,0.28824 -0.7861,0.28824 -0.89091,0 -1.46738,-0.39305 -0.55027,-0.39305 -0.86471,-0.99572 -0.31444,-0.62888 -0.41925,-1.36258 -0.10482,-0.75989 -0.10482,-1.46738 v -15.0669 h 2.22728 v 14.72626 q 0,0.31444 0.0262,0.70749 0.0262,0.36684 0.13101,0.73369 0.10482,0.34064 0.31444,0.57647 0.20963,0.23583 0.60268,0.23583 0.31444,0 0.52406,-0.23583 0.23583,-0.23583 0.39305,-0.57647 0.15722,-0.34064 0.20963,-0.73369 0.0786,-0.39305 0.0786,-0.7337 v -14.70005 h 2.22728 v 18.86638 z m -10.48134,0 v -18.89258 h 2.22728 v 16.6653 h 1.99145 v 2.22728 z m -2.88236,-4.03531 q 0,0.8123 -0.13101,1.6246 -0.13102,0.7861 -0.52407,1.41498 -0.36685,0.62888 -1.04813,1.02193 -0.65508,0.39305 -1.72942,0.39305 -1.02193,0 -1.67701,-0.39305 -0.62888,-0.39305 -0.99573,-1.02193 -0.36684,-0.62888 -0.49786,-1.38877 -0.13101,-0.7599 -0.13101,-1.49359 v -11.18881 q 0,-0.7861 0.15722,-1.51979 0.15721,-0.7599 0.55026,-1.33637 0.39305,-0.60268 1.02193,-0.96952 0.65509,-0.36685 1.5984,-0.36685 1.02193,0 1.67702,0.39305 0.68128,0.39305 1.04813,0.99573 0.39305,0.60267 0.52406,1.36257 0.15722,0.73369 0.15722,1.44118 v 2.59413 h -2.22728 v -2.25349 q 0,-0.31444 -0.0524,-0.68128 -0.0262,-0.39305 -0.15722,-0.7337 -0.10482,-0.36684 -0.36685,-0.60267 -0.23583,-0.23583 -0.62888,-0.23583 -0.36685,0 -0.60267,0.26203 -0.20963,0.23583 -0.31444,0.60268 -0.10482,0.34064 -0.13102,0.75989 -0.0262,0.39305 -0.0262,0.7337 v 10.3765 q 0,0.39305 0.0262,0.81231 0.0524,0.41925 0.15722,0.75989 0.13102,0.31444 0.34064,0.55027 0.20963,0.20963 0.55027,0.20963 0.39305,0 0.62888,-0.26204 0.26203,-0.28823 0.36685,-0.70749 0.13101,-0.44545 0.15722,-0.96952 0.0524,-0.52406 0.0524,-1.04813 h 2.22728 z m -17.923043,4.03531 v -6.15778 q 0,-0.70749 -0.393049,-0.91711 -0.39305,-0.23583 -0.969522,-0.23583 H 94.5429 v 7.31072 h -2.227281 v -18.89258 h 3.144396 q 1.703215,0 2.436907,0.96952 0.759896,0.96952 0.759896,2.4107 v 4.19253 q 0,1.04813 -0.262033,1.67701 -0.262033,0.60268 -0.628879,0.96953 0.366846,0.36684 0.628879,0.96952 0.262033,0.60267 0.262033,1.28396 v 6.41981 z m 0,-15.22412 q 0,-0.62888 -0.314439,-1.02193 -0.288237,-0.41925 -1.152946,-0.41925 H 94.5429 v 7.04869 h 0.524066 q 0.524066,0 0.943318,-0.36685 0.419253,-0.39305 0.419253,-1.20535 z m -7.074878,11.18881 q 0,0.8123 -0.131016,1.6246 -0.131017,0.7861 -0.524066,1.41498 -0.366847,0.62888 -1.048132,1.02193 -0.655083,0.39305 -1.729418,0.39305 -1.021929,0 -1.677012,-0.39305 -0.628879,-0.39305 -0.995725,-1.02193 -0.366846,-0.62888 -0.497863,-1.38877 -0.131016,-0.7599 -0.131016,-1.49359 v -11.18881 q 0,-0.7861 0.15722,-1.51979 0.183423,-0.7599 0.576472,-1.33637 0.39305,-0.60268 1.021929,-0.96952 0.655082,-0.36685 1.598401,-0.36685 1.021929,0 1.677012,0.39305 0.681285,0.39305 1.048132,0.99573 0.366846,0.60267 0.497862,1.36257 0.15722,0.73369 0.15722,1.44118 v 7.67757 h -4.506968 v 3.14439 q 0,0.39305 0.0262,0.81231 0.05241,0.41925 0.157219,0.75989 0.131017,0.31444 0.340643,0.55027 0.209627,0.20963 0.55027,0.20963 0.393049,0 0.628879,-0.26204 0.262033,-0.28823 0.366846,-0.70749 0.131017,-0.44545 0.15722,-0.96952 0.05241,-0.52406 0.05241,-1.04813 h 2.22728 v 0.86471 z m -2.22728,-10.69095 q 0,-0.31444 -0.05241,-0.68128 -0.0262,-0.39305 -0.15722,-0.7337 -0.104813,-0.36684 -0.340643,-0.60267 -0.23583,-0.23583 -0.628879,-0.23583 -0.366846,0 -0.602676,0.23583 -0.209626,0.20963 -0.340643,0.55027 -0.104813,0.31444 -0.131016,0.70749 -0.0262,0.39305 -0.0262,0.70749 v 5.16205 h 2.279688 z m -7.703775,-1.93904 v 16.6653 h -2.22728 v -16.6653 h -1.677012 v -2.22728 h 5.581303 v 2.22728 z m -8.411257,16.6653 v -0.62888 q -0.39305,0.47166 -0.864709,0.75989 -0.445456,0.28824 -0.786099,0.28824 -0.890912,0 -1.467385,-0.39305 -0.550269,-0.39305 -0.864709,-0.99572 -0.31444,-0.62888 -0.419253,-1.36258 -0.104813,-0.75989 -0.104813,-1.46738 v -15.0669 h 2.227281 v 14.72626 q 0,0.31444 0.0262,0.70749 0.0262,0.36684 0.131016,0.73369 0.104814,0.34064 0.31444,0.57647 0.209626,0.23583 0.602676,0.23583 0.31444,0 0.524066,-0.23583 0.23583,-0.23583 0.393049,-0.57647 0.15722,-0.34064 0.209627,-0.73369 0.07861,-0.39305 0.07861,-0.7337 v -14.70005 h 2.22728 v 18.86638 z m -7.2583,-11.05779 q 0,1.70321 -0.707489,2.69894 -0.681286,0.96952 -2.279687,0.96952 h -1.126742 v 7.38933 h -2.227281 v -18.89258 h 3.144396 q 1.703215,0 2.436907,0.96952 0.759896,0.96952 0.759896,2.4107 z m -2.227281,-4.16633 q 0,-0.62888 -0.314439,-1.02193 -0.288237,-0.41925 -1.152946,-0.41925 h -0.419252 v 7.04869 h 0.707489 q 0.681286,0 0.917115,-0.36685 0.262033,-0.39305 0.262033,-1.20535 z m -9.904855,15.22412 v -14.72626 q 0,-0.31444 -0.05241,-0.68128 -0.0262,-0.39305 -0.15722,-0.7337 -0.104813,-0.36684 -0.366846,-0.60267 -0.23583,-0.23583 -0.628879,-0.23583 -0.366846,0 -0.602676,0.26203 -0.209626,0.23583 -0.31444,0.60268 -0.104813,0.34064 -0.131016,0.75989 -0.0262,0.39305 -0.0262,0.7337 v 14.62144 h -2.227281 v -14.72626 q 0,-0.31444 -0.0262,-0.68128 -0.0262,-0.39305 -0.131017,-0.7337 -0.104813,-0.36684 -0.314439,-0.60267 -0.209627,-0.23583 -0.602676,-0.23583 -0.31444,0 -0.55027,0.23583 -0.209626,0.23583 -0.366846,0.57647 -0.15722,0.34064 -0.23583,0.73369 -0.05241,0.39305 -0.05241,0.7337 v 14.70005 h -2.227281 v -18.86638 h 2.227281 v 0.62888 q 0.393049,-0.44546 0.838505,-0.73369 0.445457,-0.28824 0.812303,-0.28824 0.655082,0 1.048132,0.23583 0.393049,0.20963 0.759896,0.52407 0.759895,-0.7599 2.14867,-0.7599 1.021929,0 1.677011,0.39305 0.655083,0.39305 1.048132,0.99573 0.39305,0.60267 0.524066,1.36257 0.15722,0.73369 0.15722,1.44118 v 15.0669 z m -12.446574,-4.03531 q 0,0.8123 -0.131016,1.6246 -0.131017,0.7861 -0.524066,1.41498 -0.366846,0.62888 -1.048132,1.02193 -0.655083,0.39305 -1.729418,0.39305 -1.021929,0 -1.677011,-0.39305 -0.628879,-0.39305 -0.995726,-1.02193 -0.366846,-0.62888 -0.497862,-1.38877 -0.131017,-0.7599 -0.131017,-1.49359 v -11.18881 q 0,-0.7861 0.15722,-1.51979 0.15722,-0.7599 0.550269,-1.33637 0.39305,-0.60268 1.021929,-0.96952 0.655083,-0.36685 1.598401,-0.36685 1.021929,0 1.677012,0.39305 0.681285,0.39305 1.048132,0.99573 0.393049,0.60267 0.524066,1.36257 0.157219,0.73369 0.157219,1.44118 z m -2.22728,-10.69095 q 0,-0.31444 -0.05241,-0.68128 -0.0262,-0.39305 -0.157219,-0.7337 -0.104814,-0.36684 -0.366847,-0.60267 -0.235829,-0.23583 -0.628879,-0.23583 -0.366846,0 -0.602676,0.26203 -0.209626,0.23583 -0.314439,0.60268 -0.104814,0.34064 -0.131017,0.75989 -0.0262,0.39305 -0.0262,0.7337 v 10.3765 q 0,0.39305 0.0262,0.81231 0.05241,0.41925 0.15722,0.75989 0.131016,0.31444 0.340643,0.55027 0.209626,0.20963 0.550269,0.20963 0.419253,0 0.655083,-0.20963 0.235829,-0.23583 0.340643,-0.57647 0.131016,-0.36685 0.157219,-0.7861 0.05241,-0.44546 0.05241,-0.86471 z m -6.996265,10.69095 q 0,0.8123 -0.131016,1.6246 -0.131017,0.7861 -0.524066,1.41498 -0.366846,0.62888 -1.048132,1.02193 -0.655083,0.39305 -1.729418,0.39305 -1.021929,0 -1.677011,-0.39305 -0.628879,-0.39305 -0.995726,-1.02193 -0.366846,-0.62888 -0.497862,-1.38877 -0.131017,-0.7599 -0.131017,-1.49359 v -11.18881 q 0,-0.7861 0.15722,-1.51979 0.15722,-0.7599 0.550269,-1.33637 0.39305,-0.60268 1.021929,-0.96952 0.655083,-0.36685 1.598401,-0.36685 1.021929,0 1.677012,0.39305 0.681285,0.39305 1.048132,0.99573 0.393049,0.60267 0.524066,1.36257 0.157219,0.73369 0.157219,1.44118 v 2.59413 h -2.22728 v -2.25349 q 0,-0.31444 -0.05241,-0.68128 -0.0262,-0.39305 -0.15722,-0.7337 -0.104813,-0.36684 -0.366846,-0.60267 -0.235829,-0.23583 -0.628879,-0.23583 -0.366846,0 -0.602676,0.26203 -0.209626,0.23583 -0.314439,0.60268 -0.104814,0.34064 -0.131017,0.75989 -0.0262,0.39305 -0.0262,0.7337 v 10.3765 q 0,0.39305 0.0262,0.81231 0.05241,0.41925 0.15722,0.75989 0.131016,0.31444 0.340643,0.55027 0.209626,0.20963 0.550269,0.20963 0.39305,0 0.628879,-0.26204 0.262033,-0.28823 0.366846,-0.70749 0.131017,-0.44545 0.15722,-0.96952 0.05241,-0.52406 0.05241,-1.04813 h 2.22728 z m -15.250312,0 q 0,0.8123 -0.131017,1.6246 -0.131016,0.7861 -0.524066,1.41498 -0.366846,0.62888 -1.048132,1.02193 -0.655082,0.39305 -1.729417,0.39305 -1.021929,0 -1.6770117,-0.39305 -0.6288792,-0.39305 -0.9957254,-1.02193 -0.3668462,-0.62888 -0.4978627,-1.38877 -0.1310165,-0.7599 -0.1310165,-1.49359 v -11.18881 q 0,-0.7861 0.1572198,-1.51979 0.1834231,-0.7599 0.5764726,-1.33637 0.3930495,-0.60268 1.0219287,-0.96952 0.6550822,-0.36685 1.5984012,-0.36685 1.021929,0 1.677011,0.39305 0.681286,0.39305 1.048132,0.99573 0.366847,0.60267 0.497863,1.36257 0.15722,0.73369 0.15722,1.44118 v 7.67757 h -4.506968 v 3.14439 q 0,0.39305 0.0262,0.81231 0.05241,0.41925 0.15722,0.75989 0.131017,0.31444 0.340643,0.55027 0.209627,0.20963 0.55027,0.20963 0.393049,0 0.628879,-0.26204 0.262033,-0.28823 0.366846,-0.70749 0.131016,-0.44545 0.15722,-0.96952 0.05241,-0.52406 0.05241,-1.04813 h 2.227281 v 0.86471 z m -2.227281,-10.69095 q 0,-0.31444 -0.05241,-0.68128 -0.0262,-0.39305 -0.15722,-0.7337 -0.104813,-0.36684 -0.340643,-0.60267 -0.23583,-0.23583 -0.628879,-0.23583 -0.366846,0 -0.602676,0.23583 -0.209626,0.20963 -0.340643,0.55027 -0.104813,0.31444 -0.131017,0.70749 -0.0262,0.39305 -0.0262,0.70749 v 5.16205 h 2.279687 z m -6.9962642,10.69095 q 0,0.8123 -0.1310165,1.6246 -0.1310165,0.7861 -0.524066,1.41498 -0.3668462,0.62888 -1.048132,1.02193 -0.6550825,0.39305 -1.7294179,0.39305 -1.0219287,0 -1.67701119,-0.39305 -0.62887921,-0.39305 -0.99572541,-1.02193 -0.36684621,-0.62888 -0.4978627,-1.38877 -0.1310165,-0.7599 -0.1310165,-1.49359 v -11.18881 q 0,-0.7861 0.1572198,-1.51979 0.18342309,-0.7599 0.5764726,-1.33637 0.3930495,-0.60268 1.02192872,-0.96952 0.65508248,-0.36685 1.59840128,-0.36685 1.0219288,0 1.6770113,0.39305 0.6812858,0.39305 1.048132,0.99573 0.3668462,0.60267 0.4978627,1.36257 0.1572198,0.73369 0.1572198,1.44118 v 7.67757 H 0.97096712 v 3.14439 q 0,0.39305 0.0262033,0.81231 0.0524066,0.41925 0.15721978,0.75989 0.1310165,0.31444 0.3406429,0.55027 0.2096264,0.20963 0.5502693,0.20963 0.3930496,0 0.6288793,-0.26204 0.262033,-0.28823 0.3668462,-0.70749 0.1310165,-0.44545 0.1572198,-0.96952 0.052407,-0.52406 0.052407,-1.04813 H 5.4779352 Z M 3.2506543,321.11383 q 0,-0.31444 -0.052407,-0.68128 -0.026203,-0.39305 -0.1572198,-0.7337 -0.1048132,-0.36684 -0.3406429,-0.60267 -0.2358297,-0.23583 -0.6288793,-0.23583 -0.3668462,0 -0.6026759,0.23583 -0.2096264,0.20963 -0.3406429,0.55027 -0.1048132,0.31444 -0.13101647,0.70749 -0.0262033,0.39305 -0.0262033,0.70749 v 5.16205 H 3.2506543 Z m -9.1449314,2.46311 v -2.46311 q 0,-0.31444 -0.052407,-0.68128 -0.026203,-0.39305 -0.1572198,-0.7337 -0.1048132,-0.36684 -0.3668462,-0.60267 -0.2358297,-0.23583 -0.6288792,-0.23583 -0.3668462,0 -0.6026759,0.26203 -0.2096264,0.23583 -0.3144396,0.60268 -0.1048132,0.34064 -0.1310165,0.75989 -0.026203,0.39305 -0.026203,0.7337 v 5.00483 h 3.5112422 v 2.22728 h -3.5112422 v 7.38933 h -2.2272807 v -15.0669 q 0,-0.7861 0.15722,-1.51979 0.15722,-0.7599 0.5502692,-1.33637 0.3930495,-0.60268 1.0219288,-0.96952 0.6550825,-0.36685 1.5984013,-0.36685 1.0219287,0 1.6770112,0.39305 0.6812858,0.39305 1.048132,0.99573 0.3930495,0.60267 0.524066,1.36257 0.1572198,0.73369 0.1572198,1.44118 v 2.80375 z m -9.2235429,0 v -2.46311 q 0,-0.31444 -0.05241,-0.68128 -0.0262,-0.39305 -0.15722,-0.7337 -0.104813,-0.36684 -0.366846,-0.60267 -0.23583,-0.23583 -0.628879,-0.23583 -0.366846,0 -0.602676,0.26203 -0.209626,0.23583 -0.31444,0.60268 -0.104813,0.34064 -0.131016,0.75989 -0.0262,0.39305 -0.0262,0.7337 v 5.00483 h 3.511242 v 2.22728 h -3.511242 v 7.38933 h -2.227281 v -15.0669 q 0,-0.7861 0.15722,-1.51979 0.15722,-0.7599 0.550269,-1.33637 0.39305,-0.60268 1.021929,-0.96952 0.655082,-0.36685 1.598401,-0.36685 1.021929,0 1.677011,0.39305 0.681286,0.39305 1.048132,0.99573 0.39305,0.60267 0.524066,1.36257 0.15722,0.73369 0.15722,1.44118 v 2.80375 z m -7.258324,8.22784 q 0,0.8123 -0.131016,1.6246 -0.131017,0.7861 -0.524066,1.41498 -0.366846,0.62888 -1.048132,1.02193 -0.655083,0.39305 -1.729418,0.39305 -1.021929,0 -1.677011,-0.39305 -0.62888,-0.39305 -0.995726,-1.02193 -0.366846,-0.62888 -0.497862,-1.38877 -0.131017,-0.7599 -0.131017,-1.49359 v -11.18881 q 0,-0.7861 0.15722,-1.51979 0.15722,-0.7599 0.550269,-1.33637 0.39305,-0.60268 1.021929,-0.96952 0.655082,-0.36685 1.598401,-0.36685 1.021929,0 1.677011,0.39305 0.681286,0.39305 1.048132,0.99573 0.39305,0.60267 0.524066,1.36257 0.15722,0.73369 0.15722,1.44118 z m -2.22728,-10.69095 q 0,-0.31444 -0.05241,-0.68128 -0.0262,-0.39305 -0.15722,-0.7337 -0.104813,-0.36684 -0.366846,-0.60267 -0.23583,-0.23583 -0.628879,-0.23583 -0.366846,0 -0.602676,0.26203 -0.209626,0.23583 -0.31444,0.60268 -0.104813,0.34064 -0.131016,0.75989 -0.0262,0.39305 -0.0262,0.7337 v 10.3765 q 0,0.39305 0.0262,0.81231 0.05241,0.41925 0.15722,0.75989 0.131016,0.31444 0.340643,0.55027 0.209626,0.20963 0.550269,0.20963 0.419253,0 0.655082,-0.20963 0.23583,-0.23583 0.340643,-0.57647 0.131017,-0.36685 0.15722,-0.7861 0.05241,-0.44546 0.05241,-0.86471 z m -6.996263,10.69095 q 0,0.8123 -0.131016,1.6246 -0.131017,0.7861 -0.524066,1.41498 -0.366847,0.62888 -1.048132,1.02193 -0.655083,0.39305 -1.729418,0.39305 -1.021929,0 -1.677012,-0.39305 -0.628879,-0.39305 -0.995725,-1.02193 -0.366846,-0.62888 -0.497863,-1.38877 -0.131016,-0.7599 -0.131016,-1.49359 v -11.18881 q 0,-0.7861 0.15722,-1.51979 0.157219,-0.7599 0.550269,-1.33637 0.393049,-0.60268 1.021929,-0.96952 0.655082,-0.36685 1.598401,-0.36685 1.021929,0 1.677011,0.39305 0.681286,0.39305 1.048132,0.99573 0.39305,0.60267 0.524066,1.36257 0.15722,0.73369 0.15722,1.44118 v 2.59413 h -2.22728 v -2.25349 q 0,-0.31444 -0.05241,-0.68128 -0.0262,-0.39305 -0.15722,-0.7337 -0.104813,-0.36684 -0.366846,-0.60267 -0.23583,-0.23583 -0.628879,-0.23583 -0.366847,0 -0.602676,0.26203 -0.209627,0.23583 -0.31444,0.60268 -0.104813,0.34064 -0.131016,0.75989 -0.0262,0.39305 -0.0262,0.7337 v 10.3765 q 0,0.39305 0.0262,0.81231 0.05241,0.41925 0.157219,0.75989 0.131017,0.31444 0.340643,0.55027 0.209627,0.20963 0.55027,0.20963 0.393049,0 0.628879,-0.26204 0.262033,-0.28823 0.366846,-0.70749 0.131017,-0.44545 0.15722,-0.96952 0.05241,-0.52406 0.05241,-1.04813 h 2.22728 z"
         inkscape:label="CoffeeComputerClub" /></g></g></svg>
