<?xml version="1.0" encoding="UTF-8" standalone="no"?>
<svg
   width="317.22964pt"
   height="141.73228pt"
   viewBox="0 0 317.22964 141.73228"
   version="1.1"
   id="svg572"
   sodipodi:docname="Git_Logo_Sticker.svg"
   inkscape:version="1.2.2 (b0a8486541, 2022-12-01)"
   inkscape:export-filename="Git_Logo_Sticker.png"
   inkscape:export-xdpi="300"
   inkscape:export-ydpi="300"
   xmlns:inkscape="http://www.inkscape.org/namespaces/inkscape"
   xmlns:sodipodi="http://sodipodi.sourceforge.net/DTD/sodipodi-0.dtd"
   xmlns="http://www.w3.org/2000/svg"
   xmlns:svg="http://www.w3.org/2000/svg">
  <sodipodi:namedview
     id="namedview574"
     pagecolor="#ffffff"
     bordercolor="#999999"
     borderopacity="1"
     inkscape:showpageshadow="0"
     inkscape:pageopacity="0"
     inkscape:pagecheckerboard="true"
     inkscape:deskcolor="#d1d1d1"
     inkscape:document-units="pt"
     showgrid="false"
     showguides="true"
     inkscape:zoom="3.0115564"
     inkscape:cx="199.39856"
     inkscape:cy="89.986693"
     inkscape:window-width="1920"
     inkscape:window-height="1048"
     inkscape:window-x="0"
     inkscape:window-y="0"
     inkscape:window-maximized="1"
     inkscape:current-layer="svg572">
    <sodipodi:guide
       position="163.76147,119.27669"
       orientation="0,-1"
       id="guide939"
       inkscape:locked="false" />
  </sodipodi:namedview>
  <defs
     id="defs556" />
  <path
     id="path564-7"
     clip-path="none"
     style="display:inline;fill:#ffffff;fill-opacity:1;fill-rule:nonzero;stroke:none;stroke-width:1;stroke-opacity:1"
     inkscape:label="contour"
     d="m 186.92745,30.804932 c -3.72216,0.02614 -7.44226,0.417876 -11.08388,1.161724 -5.29558,1.172331 -10.45372,3.553368 -14.59311,7.091443 H 116.39315 C 105.12586,27.779067 93.935787,16.604707 82.624457,5.3704322 80.317477,2.8725609 77.247018,1.1040889 73.903639,0.44929231 72.701699,0.19730246 71.469489,0.0901825 70.24186,0.11339789 v -2.75e-6 C 65.15687,0.17945989 60.476383,2.9984685 57.234885,6.7852469 39.397208,24.639249 21.485932,42.423139 3.7564891,60.383076 c -5.0933631,5.864039 -5.0324967,15.527251 0.3370154,21.199821 2.7233227,3.064785 5.8004565,5.788146 8.6280385,8.755556 15.911036,15.888557 31.761883,31.840657 47.754301,47.645667 5.905664,5.10304 15.630627,5.02346 21.302568,-0.41138 3.144076,-2.8448 5.989657,-5.99928 9.049322,-8.93342 9.015624,-9.02755 18.421726,-18.23241 27.438186,-27.26 h 33.75225 c 0.22463,0.53738 0.48486,1.11928 0.76547,1.63022 -4.73864,7.2068 -4.63477,17.42123 0.76589,24.25602 3.8932,4.97739 10.00666,7.60736 16.02473,8.96934 6.73222,1.50157 13.67744,1.74641 20.55142,1.64251 8.83631,-0.28626 17.93087,-1.8726 25.56963,-6.55229 5.85649,-3.62607 10.49591,-9.40859 12.07587,-16.18035 0.45221,-1.80777 0.72749,-3.66206 0.81414,-5.52395 h 40.56656 v -5.56754 c 4.87253,4.04229 11.31946,5.49392 17.51956,5.67276 10.07926,0.37166 19.98699,-2.7156 28.83661,-7.36521 0.6144,-0.45273 1.86929,-0.48387 1.64368,-1.48868 0.2964,-2.174513 -0.29715,-4.306787 -1.03037,-6.330043 -1.93106,-6.339523 -3.87623,-12.674419 -5.818,-19.010716 -4.19873,1.352374 -8.21642,3.342097 -12.5819,4.12258 -0.68581,0.02607 -1.75351,0.392748 -2.23329,0.06546 -0.23179,-5.621263 -0.011,-11.249246 -0.0978,-16.873435 v -4.84899 h 17.81075 V 29.555608 H 295.39036 V 11.379944 h -26.97104 c -0.74869,4.930209 -0.69249,10.033346 -2.3057,14.796878 -0.62382,1.837136 -1.92078,3.616505 -3.91921,4.044207 -1.50795,0.442546 -1.94021,0.711035 -4.68209,0.711035 4.12398,-5.399161 4.83271,-12.889325 2.74188,-19.23872 -1.88126,-5.6902466 -7.02352,-10.0427077 -12.88423,-11.16678794 -1.91396,-0.41771635 -3.88202,-0.56605226 -5.8385,-0.51780534 l 6e-5,4.12e-6 c -6.58465,0.00522033 -13.42289,3.51224346 -16.27693,9.62588586 -2.81348,6.0077793 -2.71408,13.4223523 0.51092,19.2389643 0.3232,0.582929 0.74879,1.347424 1.54405,1.975285 h -2.33845 c -14.65128,0 -25.03365,-0.04396 -38.04367,-0.04396 z"
     sodipodi:nodetypes="ccccccssccccccccccccccccccccccccccccccccccccccccscccc" />
  <path
     id="path564"
     clip-path="none"
     style="display:inline;fill:#202020;fill-opacity:1;fill-rule:nonzero;stroke:none;stroke-width:1"
     inkscape:label="git"
     d="m 308.18761,96.740088 c -5.14066,2.507136 -12.67031,4.782102 -19.48972,4.782102 -14.2268,0 -19.60375,-5.735501 -19.60375,-19.253429 V 50.950854 c 0,-0.719858 0,-1.196557 -0.96164,-1.196557 h -8.3704 V 39.11305 c 10.5286,-1.196557 14.70899,-6.460856 16.02369,-19.491094 h 11.36111 v 16.979836 c 0,0.836628 0,1.195183 0.95477,1.195183 h 16.8562 V 49.754297 H 287.1469 v 28.570361 c 0,7.055699 1.67325,9.803246 8.12999,9.803246 3.34788,0 6.81391,-0.836628 9.68098,-1.909545 l 3.22974,10.523103 M 242.25749,29.522739 c -6.81529,0 -10.7594,-3.942729 -10.7594,-10.764887 0,-6.809794 3.94411,-10.5176076 10.7594,-10.5176076 6.93755,0 10.88303,3.7091876 10.88303,10.5176076 0,6.820784 -3.94411,10.764887 -10.88303,10.764887 z m -15.42336,71.855211 v -9.446068 l 6.09681,-0.832507 c 1.67463,-0.24041 1.91504,-0.600339 1.91504,-2.398608 V 53.55278 c 0,-1.309206 -0.35856,-2.151329 -1.55511,-2.505762 l -6.45674,-2.274969 1.3147,-9.68098 h 24.7499 v 49.612446 c 0,1.921909 0.11815,2.156824 1.91642,2.398608 l 6.09543,0.832506 v 9.444691 H 226.83413 M 187.98245,50.891781 c -6.5735,0 -11.47238,3.231115 -11.47238,11.001176 0,5.853648 3.22425,9.92139 11.11795,9.92139 6.69165,0 11.23747,-3.938608 11.23747,-10.163174 0,-7.051578 -4.06775,-10.759392 -10.88304,-10.759392 z m -13.14701,54.882239 c -1.55648,1.90955 -3.10747,3.94273 -3.10747,6.33584 0,4.78073 6.09131,6.21495 14.46171,6.21495 6.93893,0 16.38362,-0.48357 16.38362,-6.92794 0,-3.83694 -4.54444,-4.07323 -10.28681,-4.43316 z m 35.38978,-54.52231 c 2.1472,2.753041 4.42355,6.579 4.42355,12.079588 0,13.265154 -10.40084,21.04071 -25.46426,21.04071 -3.83146,0 -7.29749,-0.478073 -9.45019,-1.078412 l -3.94273,6.337216 11.71279,0.714362 c 20.68765,1.318822 32.87989,1.920535 32.87989,17.815086 0,13.74873 -12.07409,21.52016 -32.87989,21.52016 -21.63693,0 -29.88918,-5.50058 -29.88918,-14.94665 0,-5.38107 2.39311,-8.24264 6.579,-12.19636 -3.9496,-1.66364 -5.25881,-4.652969 -5.25881,-7.884083 0,-2.629402 1.30921,-5.022515 3.46603,-7.297484 2.15133,-2.269473 4.54032,-4.54032 7.41151,-7.169722 -5.85502,-2.871186 -10.28269,-9.090257 -10.28269,-17.93873 0,-13.748723 9.08476,-23.189292 27.3793,-23.189292 5.14066,0 8.24813,0.472578 11.00117,1.19793 h 23.31568 v 10.157679 l -10.9998,0.838002 M 131.04093,65.364482 76.374362,10.70342 a 8.0613011,8.0613011 0 0 0 -11.402315,0 L 53.620559,22.053534 68.017702,36.456172 a 9.5683303,9.5683303 0 0 1 9.85408,2.291454 9.5889369,9.5889369 0 0 1 2.274968,9.911774 l 13.877853,13.881978 a 9.5655828,9.5655828 0 0 1 9.910407,2.276342 9.5834418,9.5834418 0 0 1 0,13.566011 9.5889369,9.5889369 0 0 1 -13.571509,0 9.5985533,9.5985533 0 0 1 -2.086768,-10.432434 L 75.333049,55.007606 v 34.059959 a 9.5875632,9.5875632 0 0 1 2.538733,1.81338 9.5999271,9.5999271 0 0 1 0,13.572875 c -3.750405,3.74491 -9.826604,3.74491 -13.566015,0 a 9.5889369,9.5889369 0 0 1 0,-13.572875 9.4694187,9.4694187 0 0 1 3.139072,-2.09226 V 54.411388 A 9.4694187,9.4694187 0 0 1 64.305767,52.319132 9.5999271,9.5999271 0 0 1 62.234117,41.827626 L 48.040292,27.628306 10.55689,65.111708 a 8.0613011,8.0613011 0 0 0 0,11.403691 l 54.666558,54.666561 a 8.0613011,8.0613011 0 0 0 11.402314,0 L 131.04093,76.773668 a 8.06817,8.06817 0 0 0 0,-11.409186" />
</svg>
