<?xml version="1.0" encoding="UTF-8" standalone="no"?>
<svg
   width="188.72235"
   height="188.97638"
   version="1.1"
   id="svg4079"
   sodipodi:docname="Vim_Logo_Sticker.svg"
   xml:space="preserve"
   inkscape:version="1.2.2 (b0a8486541, 2022-12-01)"
   inkscape:export-filename="Vim_Logo_Sticker.png"
   inkscape:export-xdpi="300"
   inkscape:export-ydpi="300"
   xmlns:inkscape="http://www.inkscape.org/namespaces/inkscape"
   xmlns:sodipodi="http://sodipodi.sourceforge.net/DTD/sodipodi-0.dtd"
   xmlns:xlink="http://www.w3.org/1999/xlink"
   xmlns="http://www.w3.org/2000/svg"
   xmlns:svg="http://www.w3.org/2000/svg"
   xmlns:rdf="http://www.w3.org/1999/02/22-rdf-syntax-ns#"
   xmlns:cc="http://creativecommons.org/ns#"
   xmlns:dc="http://purl.org/dc/elements/1.1/"><defs
     id="defs4083"><inkscape:path-effect
       effect="offset"
       id="path-effect2059"
       is_visible="true"
       lpeversion="1.2"
       linejoin_type="round"
       unit="mm"
       offset="2"
       miter_limit="4"
       attempt_force_join="false"
       update_on_knot_move="true" /><inkscape:path-effect
       effect="offset"
       id="path-effect1996"
       is_visible="true"
       lpeversion="1.2"
       linejoin_type="miter"
       unit="mm"
       offset="3"
       miter_limit="4"
       attempt_force_join="false"
       update_on_knot_move="true" /><inkscape:path-effect
       effect="offset"
       id="path-effect1215"
       is_visible="true"
       lpeversion="1.2"
       linejoin_type="round"
       unit="mm"
       offset="3"
       miter_limit="1"
       attempt_force_join="false"
       update_on_knot_move="true" /><inkscape:path-effect
       effect="offset"
       id="path-effect1213"
       is_visible="true"
       lpeversion="1.2"
       linejoin_type="bevel"
       unit="mm"
       offset="3"
       miter_limit="4"
       attempt_force_join="false"
       update_on_knot_move="true" /><inkscape:path-effect
       effect="offset"
       id="path-effect1211"
       is_visible="true"
       lpeversion="1.2"
       linejoin_type="miter"
       unit="mm"
       offset="3"
       miter_limit="4"
       attempt_force_join="false"
       update_on_knot_move="true" /><polygon
       id="path-1"
       points="79.3701,91 79.3701,0.2939 0.0001,0.2939 0.0001,91 " /><polygon
       id="path-3"
       points="28.43,0.9396 0.4917,0.9396 0.4917,40.3456 28.43,40.3456 " /><polygon
       id="path-5"
       points="215.43,90.71 215.43,-1.4210855e-14 0,-1.4210855e-14 0,90.71 " /><mask
       id="mask-2-3"
       fill="#ffffff"><use
         xlink:href="#path-1"
         id="use227-6" /></mask><style
       id="style11592">.a{fill:#019833;}.b{fill:#66fe98;}.c{fill:#45fe02;}.d{fill:#017d17;}.e{fill:#005d04;}.f{fill:#fefefe;}.g{fill:gray;}.h{fill:#ccc;}</style></defs><sodipodi:namedview
     id="namedview4081"
     pagecolor="#ffffff"
     bordercolor="#999999"
     borderopacity="1"
     inkscape:showpageshadow="0"
     inkscape:pageopacity="0"
     inkscape:pagecheckerboard="true"
     inkscape:deskcolor="#d1d1d1"
     showgrid="false"
     showguides="true"
     inkscape:zoom="1.167513"
     inkscape:cx="211.56081"
     inkscape:cy="269.80428"
     inkscape:window-width="1920"
     inkscape:window-height="1048"
     inkscape:window-x="0"
     inkscape:window-y="0"
     inkscape:window-maximized="1"
     inkscape:current-layer="svg4079" /><metadata
     id="metadata7"><rdf:RDF><cc:Work
         rdf:about=""><dc:format>image/svg+xml</dc:format><dc:type
           rdf:resource="http://purl.org/dc/dcmitype/StillImage" /></cc:Work></rdf:RDF></metadata><path
     id="path12032-2"
     style="color:#000000;display:inline;fill:#ffffff;fill-opacity:1;stroke:none;stroke-width:1.382;stroke-miterlimit:10;stroke-dasharray:none;stroke-opacity:1"
     inkscape:label="contour"
     d="M 94.066431,0.4759084 C 90.864691,3.6787442 87.664981,6.8847228 84.464038,10.088805 84.006052,9.7347782 83.548177,9.380609 83.090111,9.0266862 H 20.54261 c -2.810128,2.8113988 -5.619864,5.6231898 -8.429993,8.4345878 v 16.349278 c 2.819756,2.821026 5.639121,5.642441 8.458876,8.463467 h 2.566678 V 71.494102 C 15.425542,79.219172 7.7121531,86.943485 0,94.669032 7.7121534,102.39458 15.425542,110.11889 23.138171,117.84397 v 44.29783 c 2.810166,2.8118 5.619827,5.6241 8.429993,8.4359 h 20.835382 c 3.838466,-3.96638 7.67683,-7.93286 11.515258,-11.89928 10.087162,10.09923 20.173541,20.19923 30.261194,30.29796 7.083982,-7.09116 14.166742,-14.18356 21.250252,-21.2752 1.38432,0.0339 2.83548,-0.0977 4.04849,-0.82507 0.85563,-0.46678 1.59466,-1.17541 2.15683,-1.94247 1.07882,1.545 2.84748,2.62291 4.74414,2.72923 1.19242,0.0864 2.38844,-0.002 3.5824,0.0337 3.58415,-0.008 7.1695,0.0276 10.75281,-0.0403 1.70459,-0.1629 3.29427,-1.08899 4.36012,-2.41609 1.1099,1.41725 2.83171,2.35796 4.63989,2.43271 1.14067,0.0697 2.2837,-0.01 3.42539,0.0238 4.01937,-0.006 8.03987,0.0233 12.05848,-0.0378 2.59665,-0.23352 4.88444,-2.22745 5.5915,-4.71825 0.51295,-1.43614 1.24864,-2.83466 1.35433,-4.38042 0.0946,-1.82046 -0.63536,-3.6531 -1.91418,-4.94496 2.36342,-7.68999 4.74428,-15.37486 7.07051,-23.07581 0.38327,-1.68396 -0.007,-3.49228 -0.92295,-4.94102 -3.8035,-6.5145 -3.83077,-6.5145 -11.06074,-6.5145 h -1.33481 c 8.24653,-8.2592 16.49387,-16.51759 24.73989,-24.7773 -10.58052,-10.597307 -21.1624,-21.193259 -31.74344,-31.790042 9.83473,-10.162162 19.66982,-20.323971 29.50432,-30.486351 V 17.533493 c -2.89241,-2.893877 -5.7844,-5.788189 -8.67681,-8.6820659 h -62.42869 c -1.99967,2.0008909 -3.999,4.0021169 -5.99854,6.0031369 C 104.43338,9.9030242 99.487415,4.951634 94.541695,0 94.383273,0.15863947 94.224853,0.31727896 94.066431,0.47591849 Z"
     sodipodi:nodetypes="sccccccccccccccccccccccccccccccccccccccccss"
     inkscape:export-filename="path12032-2.png"
     inkscape:export-xdpi="96"
     inkscape:export-ydpi="96" /><g
     id="g16001"
     inkscape:label="Logo"
     style="display:inline;stroke-width:2.97533"
     transform="matrix(0.3360969,0,0,0.3360969,2.9139338,2.9244268)"
     inkscape:export-filename="path12032-2.png"
     inkscape:export-xdpi="96"
     inkscape:export-ydpi="96"><path
       id="path2836"
       d="M 260.50744,170.69515 105.98412,340.79094 259.8636,510.178 414.38691,340.08221 Z"
       style="display:inline;fill:#202020;fill-opacity:1;stroke:none;stroke-width:2.81382px;stroke-linecap:butt;stroke-linejoin:miter;stroke-opacity:1"
       transform="matrix(1.532388,0,0,1.3939671,-124.89313,-202.12528)"
       inkscape:label="BG_inner" /><path
       style="color:#000000;display:inline;fill:#202020;fill-opacity:1;stroke-width:2.97533;-inkscape-stroke:none"
       d="M 272.62305,8.2792969 269.68945,11.216797 8.2871094,272.9707 271.54687,536.58594 535.88477,271.89258 Z M 272.625,20.015625 524.16406,271.89258 271.54687,524.84961 20.007812,272.9707 Z"
       id="path2846-0"
       inkscape:label="BG_outer" /><path
       id="path3632-1-2-6"
       style="display:inline;fill:#202020;fill-opacity:1;stroke:none;stroke-width:4.1125px;stroke-linecap:butt;stroke-linejoin:miter;stroke-opacity:1"
       d="m 338.96251,30.261553 c -6.0443,6.053526 -12.10513,12.119332 -18.16119,18.173303 0,12.658239 0,25.316478 0,37.974716 6.02109,6.01876 12.03856,12.040517 18.05345,18.064408 2.12099,0 4.242,0 6.36299,0 -41.0183,40.91964 -82.03662,81.83929 -123.05494,122.75894 0,-40.83343 0,-81.66687 0,-122.50031 4.50739,0 9.01475,0 13.52213,0 6.34607,-6.355161 12.69484,-12.70811 19.04711,-19.058132 -1e-5,-13.27355 0,-26.547086 0,-39.820636 -6.76139,-5.232478 -13.52277,-10.464957 -20.28319,-15.698467 -59.00992,0 -118.01982,0 -177.029723,0 -6.01401,6.023792 -12.030273,12.04573 -18.050458,18.064406 0,12.902364 0,25.804728 0,38.707093 6.049147,6.04767 12.09428,12.098714 18.137252,18.151516 4.889467,0 9.778949,0 14.668416,0 0,121.22612 0,242.45226 0,363.67839 6.017596,6.02173 12.033583,12.0448 18.050458,18.06712 17.312195,0 34.624385,0 51.936585,0 130.67111,-135.02663 261.34692,-270.04952 392.01896,-405.075405 0,-11.104537 0,-22.209088 0,-33.313639 -6.26555,-6.263736 -12.52735,-12.530635 -18.78671,-18.799487 -58.60187,0 -117.20375,0 -175.8056,0 -0.20852,0.208733 -0.41703,0.417452 -0.62554,0.626184 z"
       inkscape:label="V_outer" /><path
       id="path3632-1"
       style="display:inline;fill:#ffffff;fill-opacity:1;stroke:#202020;stroke-width:2.81382px;stroke-linecap:butt;stroke-linejoin:miter;stroke-opacity:1"
       d="m 305.72852,173.55469 c -2.67184,2.94293 -5.35375,5.89464 -8.03321,8.83789 0,7.3164 0,14.63281 0,21.94922 2.65647,2.91793 5.31046,5.83815 7.96289,8.75976 4.42578,0 8.85157,0 13.27735,0 0,1.22591 0,2.45183 0,3.67774 -33.10026,36.29948 -66.20052,72.59896 -99.30078,108.89843 0,-37.46354 0,-74.92708 0,-112.39062 4.21419,0 8.42838,0 12.64257,0 2.86855,-3.15927 5.73874,-6.31706 8.61133,-9.47266 0,-7.58528 0,-15.17057 0,-22.75586 -2.9702,-2.52651 -5.94057,-5.05283 -8.91015,-7.58007 -36.65951,0 -73.31901,0 -109.97852,0 -2.6537,2.91986 -5.30677,5.84032 -7.96094,8.75976 0,7.49154 0,14.98307 0,22.47461 2.67306,2.94027 5.34499,5.88157 8.01758,8.82227 4.46354,0 8.92708,0 13.39063,0 0,88.36458 0,176.72916 0,265.09375 2.65428,2.91999 5.30711,5.84131 7.96093,8.76171 9.25651,10e-6 18.51302,10e-6 27.76953,0 84.02285,-95.44249 168.04881,-190.88226 252.07227,-286.32421 0,-6.22461 0,-12.44922 0,-18.67383 -2.81603,-3.09367 -5.62941,-6.18977 -8.44141,-9.28711 -36.22395,0 -72.44791,0 -108.67187,0 -0.13607,0.14974 -0.27214,0.29948 -0.4082,0.44922 z"
       inkscape:label="V_mid"
       transform="matrix(1.532388,0,0,1.3939671,-124.89313,-202.12528)" /><path
       transform="matrix(1.3812731,0,0,1.3831296,-795.19469,-460.43596)"
       d="m 828.9375,369.5 -4.28125,4.28125 V 389.5 l 3.75,3.75 h 19.8125 v 15.1875 L 719.82772,536.35329 V 393.4375 h 19.10978 l 4.46875,-4.46875 V 373.0625 l -4.125,-3.1875 h -114.625 l -3.75,3.75 v 16.25 l 3.8125,3.8125 h 19.9375 v 272.25 l 3.75,3.75 H 671.0625 L 945.71875,386.28125 v -12.5 L 941.4375,369.5 Z"
       id="path3632"
       style="display:inline;fill:#ffffff;fill-opacity:1;stroke:#202020;stroke-width:10.763;stroke-linecap:butt;stroke-linejoin:miter;stroke-dasharray:none;stroke-opacity:1"
       sodipodi:nodetypes="cccccccccccccccccccccccc"
       inkscape:label="V_inner" /><path
       style="color:#000000;display:inline;fill:#202020;fill-opacity:1;stroke-width:2.97533;stroke-miterlimit:10;-inkscape-stroke:none"
       d="m 400.03125,556 0.40625,0.0215 c -0.35276,-0.0359 -0.70974,-0.0359 -1.0625,0 l -0.20703,0.0195 -0.20313,0.043 c -0.8848,0.18469 -1.7079,0.59658 -2.38672,1.19336 l -5.32031,4.56836 -0.0391,0.0352 c -0.67401,0.61172 -1.17715,1.39038 -1.45898,2.25586 l 0.0351,-0.10742 -5.3125,14.875 0.004,-0.006 c -0.67624,1.88292 -0.20935,4.01093 1.19336,5.4375 l 0.0117,0.0117 4.10156,4.10351 0.0293,0.0273 c 0.99553,0.95659 2.33244,1.48215 3.71289,1.45898 h 16.27343 c 1.38045,0.0232 2.71736,-0.50239 3.71289,-1.45898 l 0.0332,-0.0332 4.30859,-4.33789 0.002,-0.004 c 0.62347,-0.62586 1.07845,-1.40089 1.32227,-2.25 l 4.55859,-15.63672 v -0.004 c 0.53275,-1.82759 0.0221,-3.82016 -1.32422,-5.16602 l -0.002,-0.004 -3.55664,-3.55664 -0.0293,-0.0273 c -0.99553,-0.95659 -2.33244,-1.48215 -3.71289,-1.45898 z m -30.0625,41.9375 0.40625,0.0215 c -0.35276,-0.0359 -0.70974,-0.0359 -1.0625,0 l -0.21875,0.0215 -0.21484,0.0469 c -1.94057,0.4163 -3.4925,1.91539 -3.97657,3.83985 l -0.002,0.004 c -1.4e-4,5.7e-4 1.4e-4,10e-4 0,0.002 l -2.03125,8.06054 v 0.006 c -0.79666,3.19547 1.74587,6.47431 5.03906,6.49805 h 0.0156 4.03125 l -22.08203,63.04687 -0.01,0.0254 c -1.09314,3.2595 1.47046,6.86088 4.9082,6.89648 h 0.0195 34.80859 c 2.26462,0.0322 4.32428,-1.43294 5.03906,-3.58203 l 0.0137,-0.0371 2.29493,-7.39063 0.002,-0.008 c 1.00066,-3.27033 -1.61915,-6.78711 -5.03906,-6.76367 h -2.24805 l 21.875,-63.77734 0.006,-0.0137 c 1.09314,-3.2595 -1.47046,-6.86088 -4.9082,-6.89648 h -0.0195 z m 110.875,0.25 0.40625,0.0215 c -0.35276,-0.0359 -0.70974,-0.0359 -1.0625,0 l -0.20313,0.0195 -0.20117,0.041 c -1.1363,0.23501 -2.16397,0.84262 -2.91797,1.72461 l -6.00976,6.78711 h -8.03125 l -6.51172,-6.74805 -0.002,-0.004 c -0.97378,-1.00509 -2.3135,-1.57982 -3.71289,-1.5918 h -0.0176 -27.55274 -0.006 c -2.18384,0.005 -4.16146,1.39629 -4.90625,3.44922 l -0.0176,0.0469 -2.54688,7.60938 c -1.09148,3.25899 1.47115,6.85893 4.9082,6.89453 h 0.0195 1.8164 l -21.14844,62.31445 -0.002,0.008 c -1.09314,3.2595 1.47046,6.86088 4.9082,6.89648 h 0.0195 29.33789 0.006 c 2.18384,-0.005 4.16146,-1.39629 4.90625,-3.44922 l 0.0137,-0.0352 2.26562,-6.64062 0.004,-0.01 c 1.06097,-3.16356 -1.34469,-6.58725 -4.62891,-6.82226 l 12.10547,-38.10547 h 18.10352 l -15.07032,48.28711 -0.002,0.0117 c -1.00066,3.27033 1.61915,6.78711 5.03906,6.76367 h 28.26953 0.0156 c 2.07258,-0.0159 3.96158,-1.27657 4.77344,-3.18359 l 0.006,-0.0117 2.55078,-6.10938 0.0137,-0.0332 c 1.26692,-3.19361 -1.13985,-6.84276 -4.52344,-7.08984 l 12.35547,-38.88477 h 16.80664 l -15.30273,48.53125 -0.004,0.0176 c -1.00066,3.27033 1.61915,6.78711 5.03906,6.76367 h 31.00586 c 2.15124,0.0157 4.12006,-1.31469 4.90821,-3.31641 l 0.006,-0.0156 2.54882,-6.63867 0.0117,-0.0312 c 1.20334,-3.29263 -1.40258,-7.02406 -4.9082,-7.0293 h -0.002 -0.74414 l 17.10546,-55.53906 v -0.002 c 0.52865,-1.62086 0.22893,-3.40971 -0.79687,-4.77148 l -5.83008,-7.83984 -0.0352,-0.0449 c -1.01982,-1.29228 -2.59847,-2.03111 -4.24414,-1.98828 l 0.10352,-0.002 h -22.15234 c -1.44511,-0.0241 -2.84017,0.55363 -3.84571,1.5918 l -0.043,0.0449 -5.85156,6.42578 h -8.71875 l -6.09961,-6.67773 -0.041,-0.043 c -1.00554,-1.03817 -2.4006,-1.61591 -3.84571,-1.5918 z"
       id="path12032"
       transform="matrix(1.3812731,0,0,1.3831296,-266.68543,-470.0986)"
       sodipodi:nodetypes="cccccccccccccccccccccccccccccccccccccccccccccccccccccccccccccccccccccccccscccccccccccscccccccccccccccccccccccccccscccccccccccccccccc"
       inkscape:label="im_outer" /><path
       id="path12032-9"
       style="color:#000000;display:inline;fill:#ffffff;fill-opacity:1;stroke-width:4.1125;stroke-miterlimit:10;-inkscape-stroke:none"
       d="m 375.28516,467.25195 -19.1875,0.0176 -3.56862,3.06271 -3.37629,3.03063 -2.43314,6.76686 -4.62391,13.12027 5.04688,4.93945 3.99648,0.004 18.0543,-0.0447 2.9213,-2.95882 2.62367,-2.85677 3.2872,-11.21497 2.744,-9.62179 -4.34765,-4.25195 -1.13672,0.008 z m -60.38672,58.02735 c -0.73,3.20027 -1.62511,6.36684 -2.36133,9.56836 h 15.80273 c -11.27632,32.25729 -22.58006,64.50496 -33.81836,96.77539 15.4935,-6e-4 30.98703,0.019 46.48047,-0.0274 0.81816,-2.86941 1.79781,-5.69397 2.61133,-8.5664 h -13.2832 c 11.15645,-32.58828 22.33614,-65.16856 33.45508,-97.76953 -10.53873,-0.003 -21.07746,-5.7e-4 -31.61618,0.006 -5.75685,0.003 -11.51369,0.008 -17.27054,0.0139 z m 176.4082,0.32031 -23.55273,0.0234 -5.40122,6.12936 -5.07535,5.73978 h -18.0957 l -11.17578,-11.53907 -4.13906,-0.002 -32.9625,0.0335 -2.91016,8.86132 h 12.52539 l -32.77127,96.74975 38.84961,-0.0332 2.9972,-8.75171 h -9.83232 l 22.12983,-68.38475 H 463.625 l -24.44336,77.13646 38.04273,0.0469 3.38406,-8.79861 h -9.34866 l 21.81054,-68.73047 h 39.97266 l -24.37269,77.52908 41.35546,-0.0293 3.23613,-8.76931 h -10.76968 l 26.68945,-86.75977 -7.60742,-10.11523 -19.08203,0.0126 -10.9336,0.0577 -3.43242,3.79905 -6.63789,7.29665 h -19.10547 l -10.56836,-11.51172 -0.50781,0.01 z"
       sodipodi:nodetypes="ccccccccccccccccccccccccscccccccccccccccccccccccccccccccccccccc"
       inkscape:label="im_inner"
       transform="translate(-69.980994,-160.33288)" /></g></svg>
